<svg width="318" height="333" viewBox="0 0 318 333" fill="none" xmlns="http://www.w3.org/2000/svg">
<path opacity="0.3" d="M257.033 194.49C234.986 245.65 176.787 267.624 131.188 263.878C118.737 262.855 93.6868 260.796 74.127 242.433C36.5639 207.169 42.3489 133.456 78.3076 90.0574C82.9384 84.4686 114.992 47.0243 164.941 47.5255C201.511 47.8924 227.179 68.4006 230.3 70.9555C234.243 74.183 242.939 81.8527 250.776 94.0202C269.192 122.609 270.811 162.52 257.033 194.49Z" fill="url(#paint0_linear_45_1669)"/>
<path d="M51.0354 77.3353C50.7473 76.9083 51.2372 76.3887 51.6824 76.6508C58.7893 80.8352 83.8655 97.6981 92.8273 131.826C101.027 163.051 101.627 186.292 101.499 194.946C101.473 196.658 99.6019 197.71 98.1115 196.85C89.2779 191.75 65.296 176.186 61.6816 155.692C57.3624 131.202 64.7826 97.7127 51.0354 77.3353Z" fill="url(#paint1_linear_45_1669)"/>
<path d="M67.0751 100.152C67.0751 100.152 87.2279 120.276 99.4482 194.292C99.4482 194.292 83.1978 120.553 67.0751 100.152Z" fill="white"/>
<g filter="url(#filter0_f_45_1669)">
<ellipse cx="158.521" cy="166.02" rx="85" ry="92.5" fill="white"/>
</g>
<path d="M81.2937 49.4983C74.7612 65.5691 40.593 160.633 124.692 208.487C124.692 208.487 163.414 151.651 83.8317 49.1476C83.1355 48.2508 81.7205 48.4483 81.2937 49.4983Z" fill="url(#paint2_linear_45_1669)"/>
<path d="M85.3806 65.5709C85.2093 71.3853 85.2823 77.2163 85.4715 83.0356C85.6656 88.8565 86.0014 94.6727 86.4826 100.477C87.4494 112.082 88.9693 123.648 91.2477 135.067C93.5376 146.477 96.5712 157.762 100.806 168.602C101.856 171.315 103.009 173.986 104.229 176.624C105.446 179.264 106.765 181.857 108.181 184.394C110.993 189.48 114.246 194.322 117.948 198.795L117.952 198.799C118.144 199.032 118.11 199.376 117.876 199.567C117.641 199.759 117.295 199.725 117.102 199.492L117.1 199.49C113.367 194.939 110.101 190.027 107.287 184.882C105.869 182.315 104.552 179.695 103.338 177.03C102.12 174.366 100.971 171.672 99.928 168.939C95.7169 158.014 92.7247 146.672 90.4795 135.217C88.2462 123.753 86.776 112.156 85.8602 100.526C85.4045 94.7097 85.0945 88.8829 84.9266 83.0523C84.7636 77.2209 84.7166 71.3891 84.9151 65.5516C84.9194 65.4241 85.0271 65.324 85.1557 65.3284C85.2843 65.3327 85.385 65.4397 85.3806 65.5672V65.5709Z" fill="white"/>
<path d="M98.1375 68.6951C97.3183 100.696 94.6621 211.078 95.9301 250.194C96.0645 254.338 99.4942 257.664 103.773 257.8C124.933 258.47 202.505 260.17 237.116 258.764C244.325 258.471 250.058 252.815 250.207 245.828C250.927 212.239 252.513 117.767 248.742 74.4891C248.29 69.3038 244.088 65.1745 238.742 64.6565C215.698 62.4236 137.792 56.9655 107.89 58.845C102.497 59.1838 98.2713 63.4623 98.1375 68.6951Z" fill="url(#paint3_linear_45_1669)"/>
<path d="M104.215 82.8042V109.923C104.215 115.124 108.069 119.34 112.822 119.34H231.256C236.01 119.34 239.863 115.124 239.863 109.923V82.8042C239.863 77.6036 236.01 73.3877 231.256 73.3877H112.822C108.069 73.3877 104.215 77.6036 104.215 82.8042Z" fill="url(#paint4_linear_45_1669)"/>
<path opacity="0.2" d="M233.822 82.6487C232.775 81.4643 231.341 80.7839 229.835 80.758L119.014 78.8315C116.051 78.7799 113.552 81.2314 113.275 84.4588L110.973 111.357C110.784 113.559 114.096 115.413 118.318 115.469L227.27 116.914C231.486 116.969 234.971 115.21 235.006 113.009L235.417 87.0715C235.443 85.4241 234.869 83.8327 233.822 82.6487Z" fill="white"/>
<path opacity="0.75" d="M132.661 146.836C132.661 151.621 129.024 155.499 124.537 155.499H114.647C110.16 155.499 106.522 151.621 106.522 146.836C106.522 142.052 110.16 138.173 114.647 138.173H124.537C129.024 138.173 132.661 142.051 132.661 146.836Z" fill="url(#paint5_linear_45_1669)"/>
<path opacity="0.75" d="M169.397 146.836C169.397 151.621 165.76 155.499 161.273 155.499H151.383C146.896 155.499 143.258 151.621 143.258 146.836C143.258 142.052 146.896 138.173 151.383 138.173H161.273C165.76 138.173 169.397 142.051 169.397 146.836Z" fill="url(#paint6_linear_45_1669)"/>
<path opacity="0.75" d="M204.721 146.836C204.721 151.621 201.083 155.499 196.596 155.499H186.706C182.219 155.499 178.582 151.621 178.582 146.836C178.582 142.052 182.219 138.173 186.706 138.173H196.596C201.083 138.173 204.721 142.051 204.721 146.836Z" fill="url(#paint7_linear_45_1669)"/>
<path opacity="0.75" d="M240.528 148.108C240.528 152.97 236.831 156.911 232.272 156.911H222.712C218.153 156.911 214.456 152.97 214.456 148.108C214.456 143.246 218.153 139.304 222.712 139.304H232.272C236.831 139.304 240.528 143.246 240.528 148.108Z" fill="url(#paint8_linear_45_1669)"/>
<path opacity="0.75" d="M132.661 173.955C132.661 178.74 129.024 182.618 124.537 182.618H114.647C110.16 182.618 106.522 178.74 106.522 173.955C106.522 169.171 110.16 165.292 114.647 165.292H124.537C129.024 165.292 132.661 169.171 132.661 173.955Z" fill="url(#paint9_linear_45_1669)"/>
<path opacity="0.75" d="M169.397 173.955C169.397 178.74 165.76 182.618 161.273 182.618H151.383C146.896 182.618 143.258 178.74 143.258 173.955C143.258 169.171 146.896 165.292 151.383 165.292H161.273C165.76 165.292 169.397 169.171 169.397 173.955Z" fill="url(#paint10_linear_45_1669)"/>
<path opacity="0.75" d="M204.721 173.955C204.721 178.74 201.083 182.618 196.596 182.618H186.706C182.219 182.618 178.582 178.74 178.582 173.955C178.582 169.171 182.219 165.292 186.706 165.292H196.596C201.083 165.292 204.721 169.171 204.721 173.955Z" fill="url(#paint11_linear_45_1669)"/>
<path opacity="0.75" d="M241.456 173.955C241.456 178.74 237.819 182.618 233.332 182.618H223.441C218.955 182.618 215.317 178.74 215.317 173.955C215.317 169.171 218.955 165.292 223.441 165.292H233.332C237.819 165.292 241.456 169.171 241.456 173.955Z" fill="url(#paint12_linear_45_1669)"/>
<g opacity="0.75">
<path opacity="0.63" d="M132.661 197.973C132.661 202.758 129.024 206.636 124.537 206.636H114.647C110.16 206.636 106.522 202.758 106.522 197.973C106.522 193.189 110.16 189.31 114.647 189.31H124.537C129.024 189.31 132.661 193.189 132.661 197.973Z" fill="url(#paint13_linear_45_1669)"/>
<path opacity="0.63" d="M169.397 197.973C169.397 202.758 165.76 206.636 161.273 206.636H151.382C146.896 206.636 143.258 202.758 143.258 197.973C143.258 193.189 146.896 189.31 151.382 189.31H161.273C165.76 189.31 169.397 193.189 169.397 197.973Z" fill="url(#paint14_linear_45_1669)"/>
<path opacity="0.63" d="M204.72 197.973C204.72 202.758 201.083 206.636 196.596 206.636H186.705C182.218 206.636 178.581 202.758 178.581 197.973C178.581 193.189 182.218 189.31 186.705 189.31H196.596C201.083 189.31 204.72 193.189 204.72 197.973Z" fill="url(#paint15_linear_45_1669)"/>
</g>
<g opacity="0.75">
<path opacity="0.63" d="M132.661 224.339C132.661 229.124 129.024 233.002 124.537 233.002H114.646C110.159 233.002 106.522 229.123 106.522 224.339C106.522 219.555 110.159 215.676 114.646 215.676H124.537C129.024 215.676 132.661 219.555 132.661 224.339Z" fill="url(#paint16_linear_45_1669)"/>
<path opacity="0.63" d="M169.397 224.339C169.397 229.124 165.76 233.002 161.273 233.002H151.382C146.896 233.002 143.258 229.124 143.258 224.339C143.258 219.555 146.896 215.676 151.382 215.676H161.273C165.76 215.676 169.397 219.555 169.397 224.339Z" fill="url(#paint17_linear_45_1669)"/>
<path opacity="0.63" d="M204.72 224.339C204.72 229.124 201.083 233.002 196.596 233.002H186.705C182.218 233.002 178.581 229.124 178.581 224.339C178.581 219.555 182.218 215.676 186.705 215.676H196.596C201.083 215.676 204.72 219.555 204.72 224.339Z" fill="url(#paint18_linear_45_1669)"/>
</g>
<path opacity="0.75" d="M237.924 223.632C237.924 229.688 233.32 234.597 227.641 234.597H227.014C221.334 234.597 216.73 229.688 216.73 223.632V202.624C216.73 196.568 221.334 191.658 227.014 191.658H227.641C233.32 191.658 237.924 196.568 237.924 202.624V223.632Z" fill="url(#paint19_linear_45_1669)"/>
<g opacity="0.7">
<path d="M231.154 86.5708C231.154 87.6109 230.305 88.454 229.257 88.454H223.946C222.898 88.454 222.048 87.6109 222.048 86.5708C222.048 85.5307 222.898 84.6875 223.946 84.6875H229.257C230.305 84.6875 231.154 85.5307 231.154 86.5708Z" fill="white"/>
<path d="M231.154 112.183C231.154 113.224 230.305 114.067 229.257 114.067H223.946C222.898 114.067 222.048 113.224 222.048 112.183C222.048 111.143 222.898 110.3 223.946 110.3H229.257C230.305 110.3 231.154 111.143 231.154 112.183Z" fill="white"/>
<path d="M222.807 97.1172C222.807 98.1573 221.958 99.0004 220.91 99.0004C219.862 99.0004 219.013 98.1573 219.013 97.1172V91.844C219.013 90.8039 219.862 89.9608 220.91 89.9608C221.958 89.9608 222.807 90.8039 222.807 91.844V97.1172Z" fill="white"/>
<path d="M222.807 107.664C222.807 108.704 221.958 109.547 220.91 109.547C219.862 109.547 219.013 108.704 219.013 107.664V102.39C219.013 101.35 219.862 100.507 220.91 100.507C221.958 100.507 222.807 101.35 222.807 102.39V107.664Z" fill="white"/>
<path d="M235.707 97.1172C235.707 98.1573 234.858 99.0004 233.81 99.0004C232.762 99.0004 231.913 98.1573 231.913 97.1172V91.844C231.913 90.8039 232.762 89.9608 233.81 89.9608C234.858 89.9608 235.707 90.8039 235.707 91.844V97.1172Z" fill="white"/>
<path d="M235.707 107.664C235.707 108.704 234.858 109.547 233.81 109.547C232.762 109.547 231.913 108.704 231.913 107.664V102.39C231.913 101.35 232.762 100.507 233.81 100.507C234.858 100.507 235.707 101.35 235.707 102.39V107.664Z" fill="white"/>
</g>
<path d="M136.767 219.833L50.1904 210.099L54.7625 170.024L141.339 179.759L136.767 219.833Z" fill="url(#paint20_linear_45_1669)"/>
<path opacity="0.5" d="M135.595 187.669L132.979 210.599C131.12 210.39 129.365 211.902 129.132 213.945C129.124 214.01 129.109 214.166 129.113 214.166L59.2313 206.309C59.2345 206.309 59.2555 206.154 59.2629 206.089C59.496 204.046 58.1792 202.205 56.289 201.992C56.2611 201.989 56.2283 201.972 56.2283 201.972L58.7854 179.558C61.9723 179.917 62.5095 177.85 62.7426 175.807C62.75 175.742 62.7236 175.726 62.7204 175.726L132.602 183.583C132.599 183.583 132.594 183.595 132.587 183.66C132.354 185.704 133.736 187.46 135.595 187.669Z" fill="white"/>
<path d="M95.8191 207.513C102.878 207.513 108.6 201.832 108.6 194.825C108.6 187.818 102.878 182.137 95.8191 182.137C88.7606 182.137 83.0386 187.818 83.0386 194.825C83.0386 201.832 88.7606 207.513 95.8191 207.513Z" fill="url(#paint21_linear_45_1669)"/>
<path d="M93.5649 203.185L93.7169 201.852C92.3234 201.639 90.9762 201.155 90.0416 200.617C89.7078 200.425 89.5735 200.014 89.7163 199.658L90.199 198.454C90.3761 198.013 90.9021 197.833 91.3198 198.065C92.249 198.581 93.4169 199.038 94.7158 199.184C96.0641 199.335 97.1214 198.995 97.2275 198.064C97.3233 197.225 96.6033 196.639 94.7863 195.929C92.1953 194.902 90.4077 193.529 90.6742 191.192C90.915 189.082 92.6528 187.646 95.3986 187.519L95.5507 186.185C95.5996 185.757 95.9896 185.448 96.4218 185.497L97.2108 185.585C97.6429 185.634 97.9535 186.021 97.9046 186.45L97.768 187.647C99.0575 187.844 99.9753 188.17 100.694 188.515C101.062 188.692 101.225 189.126 101.074 189.503L100.629 190.616C100.458 191.046 99.9532 191.235 99.5394 191.024C98.8799 190.688 97.9366 190.309 96.6705 190.166C95.0707 189.987 94.5387 190.593 94.4714 191.183C94.3886 191.909 95.2914 192.516 97.2985 193.385C100.168 194.604 101.263 195.968 101.012 198.168C100.781 200.188 99.066 201.833 96.089 201.958L95.9188 203.45C95.8699 203.879 95.4799 204.187 95.0478 204.139L94.2588 204.05C93.8265 204.001 93.5159 203.614 93.5649 203.185Z" fill="white"/>
<path d="M55.7088 180.34C55.7035 180.32 55.7018 180.299 55.7042 180.277L56.5614 172.764C56.5667 172.718 56.59 172.676 56.6259 172.648C56.662 172.619 56.7079 172.606 56.7537 172.611L78.1323 175.015C78.2277 175.026 78.2963 175.111 78.2856 175.206C78.2746 175.301 78.1887 175.369 78.0932 175.358L56.8871 172.974L56.0497 180.316C56.0387 180.411 55.9528 180.479 55.8574 180.468C55.784 180.46 55.7264 180.407 55.7088 180.34Z" fill="white"/>
<path d="M113.219 214.978C113.214 214.958 113.212 214.937 113.214 214.915C113.225 214.82 113.311 214.752 113.407 214.763L134.347 217.118L135.244 209.248C135.255 209.153 135.341 209.085 135.437 209.096C135.532 209.106 135.601 209.192 135.59 209.287L134.673 217.328C134.667 217.374 134.644 217.415 134.608 217.444C134.572 217.472 134.526 217.485 134.48 217.48L113.368 215.106C113.294 215.098 113.236 215.045 113.219 214.978Z" fill="white"/>
<path d="M134.208 228.5L52.283 199.05L66.2054 160.88L148.13 190.329L134.208 228.5Z" fill="url(#paint22_linear_45_1669)"/>
<path opacity="0.5" d="M140.663 196.772L132.749 218.47C130.99 217.838 128.908 218.994 128.202 220.928C128.18 220.989 128.199 220.978 128.111 221.229L61.9841 197.458C62.0782 197.21 62.0757 197.227 62.0981 197.165C62.8034 195.231 61.9593 193.089 60.1706 192.446C60.1444 192.437 60.1217 192.366 60.1217 192.366L67.8577 171.156C70.8733 172.24 71.9039 170.32 72.6091 168.387C72.6315 168.325 72.6337 168.27 72.6306 168.269L138.757 192.04C138.754 192.038 138.723 192.083 138.701 192.145C137.995 194.079 138.904 196.14 140.663 196.772Z" fill="white"/>
<path d="M100.323 207.247C107.381 207.247 113.103 201.567 113.103 194.559C113.103 187.552 107.381 181.871 100.323 181.871C93.2641 181.871 87.542 187.552 87.542 194.559C87.542 201.567 93.2641 207.247 100.323 207.247Z" fill="url(#paint23_linear_45_1669)"/>
<path d="M96.1726 202.17L96.6327 200.909C95.3273 200.38 94.1302 199.598 93.3471 198.86C93.0675 198.596 93.0332 198.165 93.2554 197.852L94.0068 196.793C94.2824 196.404 94.836 196.351 95.188 196.673C95.9711 197.389 96.9999 198.102 98.229 198.544C99.5048 199.003 100.613 198.915 100.934 198.035C101.224 197.241 100.661 196.504 99.0598 195.395C96.7803 193.798 95.3631 192.05 96.1697 189.839C96.8979 187.842 98.9244 186.847 101.625 187.356L102.085 186.095C102.233 185.689 102.685 185.479 103.094 185.626L103.84 185.894C104.249 186.041 104.46 186.489 104.312 186.895L103.899 188.028C105.107 188.517 105.924 189.046 106.542 189.548C106.858 189.805 106.915 190.264 106.68 190.596L105.987 191.576C105.719 191.954 105.184 192.021 104.831 191.721C104.269 191.242 103.44 190.656 102.242 190.225C100.728 189.681 100.069 190.148 99.865 190.706C99.6144 191.393 100.351 192.192 102.099 193.5C104.605 195.348 105.35 196.927 104.59 199.01C103.893 200.92 101.84 202.125 98.9151 201.559L98.4002 202.971C98.2521 203.377 97.8006 203.587 97.3917 203.44L96.6451 203.171C96.236 203.024 96.0246 202.576 96.1726 202.17Z" fill="white"/>
<path d="M64.8701 171.471C64.8698 171.451 64.873 171.43 64.8804 171.409L67.5649 164.049C67.5977 163.96 67.6972 163.914 67.7876 163.946L87.7659 171.128C87.8562 171.16 87.9036 171.259 87.8703 171.349C87.8374 171.438 87.7379 171.485 87.6476 171.452L67.8325 164.329L65.2074 171.527C65.1746 171.616 65.0751 171.663 64.9847 171.63C64.9154 171.605 64.8716 171.541 64.8701 171.471Z" fill="white"/>
<path d="M112.532 218.094C112.532 218.073 112.535 218.052 112.542 218.031C112.575 217.942 112.675 217.895 112.765 217.928L132.58 225.051L135.205 217.853C135.238 217.764 135.338 217.717 135.428 217.75C135.518 217.782 135.566 217.881 135.532 217.971L132.848 225.33C132.832 225.374 132.8 225.409 132.758 225.428C132.716 225.447 132.669 225.45 132.625 225.434L112.647 218.252C112.577 218.227 112.533 218.163 112.532 218.094Z" fill="white"/>
<path d="M127.803 237.96L58.636 185.358L83.5038 153.131L152.671 205.733L127.803 237.96Z" fill="url(#paint24_linear_45_1669)"/>
<path opacity="0.5" d="M143.571 209.672L129.435 227.991C127.949 226.862 125.609 227.314 124.349 228.946C124.309 228.998 124.327 228.966 124.167 229.178L68.3374 186.72C68.5026 186.511 68.483 186.542 68.5231 186.49C69.783 184.857 69.6384 182.582 68.1283 181.434C68.1061 181.417 68.1159 181.362 68.1159 181.362L81.9338 163.455C84.4798 165.392 86.0417 163.842 87.3016 162.209C87.3415 162.157 87.3566 162.078 87.354 162.076L143.183 204.534C143.181 204.532 143.141 204.593 143.101 204.645C141.841 206.278 142.086 208.543 143.571 209.672Z" fill="white"/>
<path d="M105.748 208.151C112.807 208.151 118.529 202.47 118.529 195.463C118.529 188.456 112.807 182.775 105.748 182.775C98.6896 182.775 92.9675 188.456 92.9675 195.463C92.9675 202.47 98.6896 208.151 105.748 208.151Z" fill="url(#paint25_linear_45_1669)"/>
<path d="M99.4797 201.478L100.302 200.413C99.2175 199.518 98.3135 198.415 97.7913 197.476C97.6048 197.141 97.703 196.72 98.0099 196.488L99.048 195.703C99.4287 195.415 99.9727 195.53 100.211 195.942C100.74 196.859 101.504 197.848 102.542 198.637C103.619 199.456 104.702 199.704 105.275 198.961C105.793 198.291 105.48 197.42 104.29 195.883C102.602 193.678 101.781 191.587 103.222 189.72C104.523 188.035 106.757 187.692 109.177 188.986L109.999 187.921C110.264 187.578 110.758 187.513 111.103 187.776L111.734 188.255C112.079 188.518 112.144 189.009 111.88 189.351L111.142 190.307C112.145 191.136 112.763 191.884 113.2 192.547C113.424 192.887 113.338 193.342 113.013 193.589L112.055 194.315C111.685 194.596 111.155 194.5 110.909 194.108C110.518 193.482 109.906 192.675 108.895 191.906C107.617 190.934 106.846 191.182 106.482 191.653C106.035 192.233 106.494 193.215 107.764 194.986C109.592 197.498 109.822 199.227 108.465 200.985C107.221 202.598 104.897 203.132 102.28 201.717L101.36 202.909C101.096 203.252 100.602 203.317 100.256 203.054L99.626 202.575C99.2807 202.312 99.2152 201.821 99.4797 201.478Z" fill="white"/>
<path d="M78.7945 162.721C78.7937 162.683 78.8055 162.645 78.8304 162.612L83.625 156.399C83.6531 156.363 83.6944 156.339 83.7401 156.333C83.7858 156.327 83.8321 156.339 83.8686 156.367L100.948 169.356C101.024 169.414 101.038 169.522 100.98 169.598C100.922 169.674 100.813 169.688 100.737 169.63L83.795 156.746L79.1061 162.823C79.0478 162.898 78.9388 162.912 78.8624 162.855C78.819 162.821 78.7956 162.771 78.7945 162.721Z" fill="white"/>
<path d="M110.29 221.601C110.289 221.564 110.301 221.525 110.326 221.493C110.384 221.417 110.493 221.403 110.57 221.461L127.299 234.184L131.988 228.107C132.046 228.032 132.155 228.017 132.232 228.075C132.308 228.133 132.322 228.241 132.264 228.317L127.469 234.531C127.441 234.567 127.4 234.591 127.354 234.597C127.308 234.603 127.262 234.591 127.226 234.563L110.358 221.735C110.315 221.702 110.291 221.652 110.29 221.601Z" fill="white"/>
<path d="M87.1806 182.822C85.9646 184.398 83.6923 184.696 82.1051 183.489C80.5179 182.282 80.217 180.026 81.4328 178.451C82.6487 176.875 84.9211 176.576 86.5083 177.783C88.0954 178.99 88.3964 181.246 87.1806 182.822Z" fill="url(#paint26_linear_45_1669)"/>
<path d="M127.546 217.114C129.545 217.114 131.166 215.505 131.166 213.52C131.166 211.535 129.545 209.926 127.546 209.926C125.546 209.926 123.925 211.535 123.925 213.52C123.925 215.505 125.546 217.114 127.546 217.114Z" fill="url(#paint27_linear_45_1669)"/>
<path d="M96.2733 221.442H49.2574C49.0131 221.442 48.8149 221.245 48.8149 221.003V213.707C48.8149 213.464 49.0131 213.268 49.2574 213.268H96.2733C96.5177 213.268 96.7158 213.464 96.7158 213.707V221.003C96.7158 221.245 96.5177 221.442 96.2733 221.442Z" fill="url(#paint28_linear_45_1669)"/>
<path d="M96.2733 212.774H49.2574C49.0131 212.774 48.8149 212.577 48.8149 212.335V205.039C48.8149 204.796 49.0131 204.599 49.2574 204.599H96.2733C96.5177 204.599 96.7158 204.796 96.7158 205.039V212.334C96.7158 212.577 96.5177 212.774 96.2733 212.774Z" fill="url(#paint29_linear_45_1669)"/>
<path d="M96.2733 230.255H49.2574C49.0131 230.255 48.8149 230.059 48.8149 229.816V222.52C48.8149 222.278 49.0131 222.081 49.2574 222.081H96.2733C96.5177 222.081 96.7158 222.278 96.7158 222.52V229.816C96.7158 230.059 96.5177 230.255 96.2733 230.255Z" fill="url(#paint30_linear_45_1669)"/>
<path d="M96.2733 239.069H49.2574C49.0131 239.069 48.8149 238.872 48.8149 238.629V231.334C48.8149 231.091 49.0131 230.894 49.2574 230.894H96.2733C96.5177 230.894 96.7158 231.091 96.7158 231.334V238.629C96.7158 238.872 96.5177 239.069 96.2733 239.069Z" fill="url(#paint31_linear_45_1669)"/>
<path d="M96.2733 247.882H49.2574C49.0131 247.882 48.8149 247.685 48.8149 247.443V240.147C48.8149 239.904 49.0131 239.708 49.2574 239.708H96.2733C96.5177 239.708 96.7158 239.904 96.7158 240.147V247.443C96.7158 247.685 96.5177 247.882 96.2733 247.882Z" fill="url(#paint32_linear_45_1669)"/>
<path d="M96.2733 256.43H49.2574C49.0131 256.43 48.8149 256.234 48.8149 255.991V248.695C48.8149 248.453 49.0131 248.256 49.2574 248.256H96.2733C96.5177 248.256 96.7158 248.453 96.7158 248.695V255.991C96.7158 256.234 96.5177 256.43 96.2733 256.43Z" fill="url(#paint33_linear_45_1669)"/>
<path d="M96.2732 264.979H49.2573C49.0129 264.979 48.8148 264.782 48.8148 264.54V257.244C48.8148 257.001 49.0129 256.805 49.2573 256.805H96.2732C96.5176 256.805 96.7157 257.001 96.7157 257.244V264.54C96.7157 264.782 96.5176 264.979 96.2732 264.979Z" fill="url(#paint34_linear_45_1669)"/>
<path d="M146.143 237.905H99.1271C98.8827 237.905 98.6846 237.708 98.6846 237.465V230.169C98.6846 229.927 98.8827 229.73 99.1271 229.73H146.143C146.387 229.73 146.585 229.927 146.585 230.169V237.465C146.585 237.708 146.387 237.905 146.143 237.905Z" fill="url(#paint35_linear_45_1669)"/>
<path d="M146.143 246.718H99.1271C98.8827 246.718 98.6846 246.521 98.6846 246.279V238.983C98.6846 238.74 98.8827 238.544 99.1271 238.544H146.143C146.387 238.544 146.585 238.74 146.585 238.983V246.279C146.585 246.521 146.387 246.718 146.143 246.718Z" fill="url(#paint36_linear_45_1669)"/>
<path d="M146.143 255.266H99.1271C98.8827 255.266 98.6846 255.07 98.6846 254.827V247.531C98.6846 247.289 98.8827 247.092 99.1271 247.092H146.143C146.387 247.092 146.585 247.289 146.585 247.531V254.827C146.585 255.07 146.387 255.266 146.143 255.266Z" fill="url(#paint37_linear_45_1669)"/>
<path d="M146.143 263.815H99.1271C98.8827 263.815 98.6846 263.618 98.6846 263.376V256.08C98.6846 255.837 98.8827 255.641 99.1271 255.641H146.143C146.387 255.641 146.585 255.837 146.585 256.08V263.376C146.585 263.618 146.387 263.815 146.143 263.815Z" fill="url(#paint38_linear_45_1669)"/>
<path d="M183.087 170.648C183.087 170.648 181.993 167.79 180.716 168.052C179.439 168.313 178.042 169.287 178.042 169.287L175.99 172.042C175.99 172.042 181.75 174.295 183.776 173.004C183.776 173.004 189.659 174.013 197.089 172.803C196.014 170.549 195.373 168.292 194.996 166.54C191.233 168.655 187.18 170.234 183.087 170.648Z" fill="url(#paint39_linear_45_1669)"/>
<path d="M214.254 149.919C214.254 149.919 205.83 160.452 194.997 166.54C195.373 168.292 196.014 170.549 197.09 172.803C202.709 171.888 209.213 169.703 214.727 164.848L214.254 149.919Z" fill="url(#paint40_linear_45_1669)"/>
<path d="M224.759 196.605C223.112 188.837 221.464 184.339 215.948 169.614C214.212 164.98 212.636 160.292 213.398 155.406L214.254 149.919C214.254 149.919 224.974 146.318 236.857 149.768C236.857 149.768 253.069 156.759 242.057 191.29C237.094 196.803 231.285 198.374 224.759 196.605Z" fill="url(#paint41_linear_45_1669)"/>
<path d="M216.078 142.916L218.858 149.546C219.034 149.964 219.413 150.263 219.863 150.339C221.466 150.612 225.342 151.039 227.888 149.377C228.191 149.179 228.268 148.769 228.061 148.474L222.925 141.154L216.078 142.916Z" fill="url(#paint42_linear_45_1669)"/>
<path d="M218.953 132.773C218.836 132.882 214.026 142.26 214.026 142.26L219.478 144.872L225.367 136.657C225.367 136.657 220.908 130.946 218.953 132.773Z" fill="url(#paint43_linear_45_1669)"/>
<path d="M222.89 137.642L220.171 142.142C220.13 142.211 220.08 142.272 220.022 142.327C219.698 142.626 218.591 143.496 217.734 142.311C217.005 141.302 216.32 140.384 215.586 140.005C215.158 139.784 214.631 139.961 214.413 140.389C213.965 141.27 213.097 143.067 212.552 144.771C212.415 145.198 212.638 145.657 213.056 145.825C214.16 146.269 216.342 147.072 218.278 147.337C218.596 147.381 218.911 147.248 219.1 146.99C219.933 145.857 222.281 142.691 223.082 141.899C223.826 141.163 225.2 141.44 225.82 141.617C226.055 141.684 226.305 141.652 226.514 141.526C227.142 141.151 228.239 140.216 227.236 138.632C226.987 138.238 227.114 137.714 227.505 137.458C228.206 137 228.967 136.141 228.242 134.748C227.508 133.339 226.198 133.213 225.305 133.321C224.91 133.369 224.509 133.163 224.357 132.798C224.29 132.636 224.157 132.497 223.909 132.447C223.441 132.353 223.134 131.928 223.226 131.463C223.383 130.666 223.264 129.63 221.982 128.93C219.63 127.646 217.569 129.738 217.045 131.504C216.521 133.27 219.151 134.518 220.806 134.726C222.021 134.879 222.687 136.196 222.955 136.884C223.053 137.134 223.029 137.413 222.89 137.642Z" fill="url(#paint44_linear_45_1669)"/>
<path d="M221.936 143.246C221.936 143.246 223.107 140.513 224.445 140.625C225.784 140.736 226.838 142.06 225.179 143.549C223.115 145.4 221.936 143.246 221.936 143.246Z" fill="url(#paint45_linear_45_1669)"/>
<path d="M223.704 265.069C226.293 265.291 230.787 265.652 234.329 265.807C236.459 265.9 237.685 265.693 238.391 265.413C238.389 265.492 238.387 265.566 238.384 265.635C238.367 266.005 238.064 266.302 237.688 266.322C230.994 266.693 225.671 266.451 223.775 266.336C223.384 266.313 223.15 265.89 223.35 265.558C223.451 265.392 223.572 265.23 223.704 265.069Z" fill="url(#paint46_linear_45_1669)"/>
<path d="M234.329 265.807C230.786 265.652 226.293 265.291 223.704 265.069C226.249 261.969 234.329 259.879 234.329 259.879H236.611C238.18 262.125 238.408 264.263 238.39 265.412C237.684 265.693 236.458 265.9 234.329 265.807Z" fill="url(#paint47_linear_45_1669)"/>
<path d="M236.995 256.181L236.782 260.376C236.759 260.83 236.416 261.212 235.958 261.277C235.502 261.342 234.891 261.35 234.244 261.136C233.845 261.004 233.55 260.671 233.476 260.265L232.738 256.181H236.995Z" fill="url(#paint48_linear_45_1669)"/>
<path d="M266.634 265.775C267.757 265.62 268.265 265.041 268.478 264.422C268.48 264.427 268.481 264.433 268.482 264.438C268.648 265.091 268.265 265.768 267.499 266.09C266.574 266.479 265.562 266.545 264.776 266.513C263.934 266.479 263.16 266.132 262.735 265.578L262.729 265.57C263.575 265.986 264.762 266.035 266.634 265.775Z" fill="url(#paint49_linear_45_1669)"/>
<path d="M261.341 256.154H263.222C266.089 256.096 267.889 262.098 268.478 264.422C268.265 265.041 267.757 265.62 266.634 265.776C264.762 266.035 263.574 265.986 262.729 265.57C261.18 263.547 260.412 260.584 260.043 258.855C259.623 256.888 261.341 256.154 261.341 256.154Z" fill="url(#paint50_linear_45_1669)"/>
<path d="M262.981 252.26L264.026 256.386C264.154 256.892 263.91 257.415 263.439 257.655C262.854 257.953 262.031 258.266 261.275 258.175C260.919 258.133 260.624 257.884 260.506 257.552L258.972 253.211L262.981 252.26Z" fill="url(#paint51_linear_45_1669)"/>
<path d="M264.227 253.453C262.927 254.598 258.698 254.749 258.698 254.749C243.465 218.454 237.115 208.462 237.115 208.462C239.314 222.161 237.589 257.326 237.589 257.326C235.075 258.427 231.834 257.326 231.834 257.326C231.63 234.898 228.45 210.799 224.347 195.378C234.643 195.149 240.238 192.921 242.026 191.517C250.608 205.252 264.227 253.453 264.227 253.453Z" fill="url(#paint52_linear_45_1669)"/>
<path d="M221.754 205.521L223.648 217.218C223.978 219.258 225.881 220.673 227.957 220.422L256.311 216.988C257.698 216.82 258.75 215.67 258.778 214.29C258.838 211.267 258.719 205.888 257.441 200.987L221.754 205.521Z" fill="url(#paint53_linear_45_1669)"/>
<path d="M228.611 219.672C228.565 219.672 228.526 219.638 228.52 219.592C228.514 219.542 228.55 219.496 228.6 219.49L229.328 219.402C229.379 219.397 229.424 219.432 229.43 219.482C229.436 219.531 229.4 219.577 229.35 219.583L228.622 219.671C228.618 219.671 228.615 219.672 228.611 219.672ZM226.922 219.527C226.913 219.527 226.903 219.526 226.894 219.523C226.657 219.446 226.426 219.345 226.208 219.222C226.164 219.198 226.148 219.142 226.173 219.099C226.198 219.055 226.254 219.039 226.298 219.064C226.506 219.181 226.725 219.277 226.951 219.35C226.999 219.366 227.025 219.417 227.009 219.465C226.997 219.503 226.961 219.527 226.922 219.527ZM231.037 219.378C230.991 219.378 230.952 219.344 230.946 219.298C230.94 219.248 230.976 219.203 231.026 219.197L231.754 219.109C231.803 219.101 231.849 219.138 231.856 219.188C231.862 219.238 231.826 219.283 231.776 219.289L231.048 219.377C231.044 219.378 231.041 219.378 231.037 219.378ZM233.463 219.084C233.417 219.084 233.377 219.05 233.372 219.004C233.366 218.954 233.401 218.909 233.452 218.903L234.179 218.815C234.229 218.81 234.275 218.844 234.281 218.894C234.287 218.944 234.252 218.989 234.201 218.995L233.474 219.084C233.47 219.084 233.466 219.084 233.463 219.084ZM235.888 218.79C235.843 218.79 235.803 218.757 235.797 218.711C235.791 218.661 235.827 218.615 235.877 218.609L236.605 218.521C236.657 218.513 236.701 218.551 236.707 218.6C236.713 218.65 236.677 218.696 236.627 218.702L235.899 218.79C235.896 218.79 235.892 218.79 235.888 218.79ZM238.314 218.497C238.268 218.497 238.229 218.463 238.223 218.417C238.217 218.367 238.253 218.321 238.303 218.316L239.03 218.227C239.08 218.222 239.126 218.257 239.132 218.307C239.139 218.356 239.103 218.402 239.053 218.408L238.325 218.496C238.321 218.497 238.318 218.497 238.314 218.497ZM240.739 218.203C240.694 218.203 240.654 218.169 240.649 218.123C240.643 218.073 240.678 218.028 240.728 218.022L241.456 217.934C241.507 217.927 241.552 217.963 241.558 218.013C241.564 218.063 241.529 218.108 241.478 218.114L240.751 218.202C240.747 218.203 240.743 218.203 240.739 218.203ZM225.007 218.094C224.977 218.094 224.948 218.08 224.931 218.054C224.791 217.848 224.671 217.627 224.575 217.398C224.556 217.351 224.578 217.298 224.625 217.279C224.672 217.26 224.725 217.282 224.744 217.328C224.835 217.546 224.949 217.756 225.083 217.952C225.111 217.994 225.1 218.05 225.058 218.078C225.042 218.089 225.024 218.094 225.007 218.094ZM243.165 217.909C243.12 217.909 243.08 217.876 243.074 217.83C243.068 217.78 243.104 217.734 243.154 217.728L243.882 217.64C243.932 217.634 243.978 217.67 243.984 217.719C243.99 217.769 243.954 217.815 243.904 217.821L243.176 217.909C243.173 217.909 243.169 217.909 243.165 217.909ZM245.591 217.616C245.545 217.616 245.506 217.582 245.5 217.536C245.494 217.486 245.53 217.44 245.58 217.434L246.308 217.346C246.358 217.34 246.404 217.376 246.41 217.425C246.416 217.475 246.38 217.521 246.33 217.527L245.602 217.615C245.598 217.615 245.595 217.616 245.591 217.616ZM248.017 217.322C247.971 217.322 247.931 217.288 247.926 217.242C247.92 217.192 247.955 217.146 248.006 217.14L248.733 217.053C248.784 217.047 248.829 217.082 248.835 217.132C248.841 217.182 248.806 217.227 248.755 217.233L248.028 217.321C248.024 217.322 248.02 217.322 248.017 217.322ZM250.442 217.028C250.397 217.028 250.357 216.994 250.351 216.948C250.345 216.898 250.381 216.853 250.431 216.847L251.159 216.759C251.208 216.752 251.255 216.788 251.261 216.838C251.267 216.888 251.231 216.933 251.181 216.939L250.453 217.028C250.45 217.028 250.446 217.028 250.442 217.028ZM252.868 216.734C252.822 216.734 252.783 216.701 252.777 216.654C252.771 216.605 252.807 216.559 252.857 216.553L253.585 216.465C253.635 216.457 253.68 216.494 253.687 216.544C253.693 216.594 253.657 216.64 253.607 216.645L252.879 216.734C252.875 216.734 252.872 216.734 252.868 216.734ZM255.294 216.441C255.248 216.441 255.208 216.407 255.203 216.36C255.197 216.311 255.232 216.265 255.283 216.259L255.499 216.233C255.665 216.213 255.828 216.178 255.984 216.127C256.032 216.112 256.084 216.138 256.099 216.186C256.115 216.233 256.088 216.285 256.04 216.3C255.873 216.354 255.698 216.392 255.521 216.414L255.305 216.44C255.301 216.44 255.297 216.441 255.294 216.441ZM224.291 215.801C224.247 215.801 224.208 215.769 224.201 215.724L224.084 215.006C224.076 214.956 224.11 214.91 224.16 214.902C224.21 214.894 224.257 214.927 224.265 214.977L224.382 215.695C224.39 215.745 224.356 215.792 224.306 215.8C224.301 215.8 224.296 215.801 224.291 215.801ZM257.368 215.318C257.35 215.318 257.331 215.313 257.315 215.301C257.274 215.272 257.264 215.215 257.293 215.174C257.431 214.983 257.54 214.774 257.619 214.553C257.636 214.506 257.689 214.481 257.736 214.498C257.784 214.515 257.809 214.567 257.792 214.614C257.707 214.85 257.59 215.074 257.443 215.28C257.425 215.305 257.397 215.318 257.368 215.318ZM223.903 213.406C223.859 213.406 223.82 213.374 223.813 213.329L223.696 212.611C223.688 212.561 223.722 212.514 223.772 212.506C223.822 212.497 223.869 212.532 223.877 212.582L223.994 213.3C224.002 213.35 223.968 213.396 223.918 213.405C223.913 213.405 223.908 213.406 223.903 213.406ZM257.869 212.994C257.868 212.994 257.868 212.994 257.868 212.994C257.817 212.994 257.777 212.953 257.777 212.903L257.778 212.57C257.778 212.442 257.778 212.31 257.777 212.176C257.776 212.126 257.817 212.085 257.868 212.084C257.918 212.093 257.96 212.124 257.96 212.175C257.961 212.309 257.961 212.441 257.961 212.57L257.96 212.904C257.96 212.954 257.919 212.994 257.869 212.994ZM223.515 211.01C223.471 211.01 223.432 210.979 223.425 210.934L223.308 210.215C223.3 210.166 223.334 210.119 223.384 210.111C223.434 210.102 223.481 210.137 223.489 210.186L223.606 210.905C223.614 210.954 223.58 211.001 223.53 211.009C223.525 211.01 223.52 211.01 223.515 211.01ZM257.833 210.568C257.784 210.568 257.743 210.529 257.741 210.48C257.733 210.243 257.723 210.001 257.712 209.754C257.709 209.704 257.748 209.661 257.799 209.659C257.846 209.652 257.892 209.695 257.895 209.745C257.906 209.993 257.916 210.236 257.925 210.474C257.926 210.524 257.887 210.566 257.836 210.568C257.835 210.568 257.834 210.568 257.833 210.568ZM223.127 208.615C223.083 208.615 223.044 208.583 223.037 208.539L222.92 207.82C222.912 207.77 222.947 207.724 222.996 207.716C223.046 207.708 223.093 207.741 223.102 207.791L223.218 208.51C223.226 208.559 223.192 208.606 223.142 208.614C223.137 208.615 223.132 208.615 223.127 208.615ZM257.696 208.145C257.649 208.145 257.609 208.109 257.605 208.061C257.586 207.822 257.565 207.581 257.543 207.337C257.538 207.287 257.575 207.243 257.626 207.238C257.675 207.233 257.721 207.27 257.725 207.321C257.748 207.565 257.769 207.807 257.788 208.047C257.792 208.097 257.754 208.141 257.703 208.145C257.701 208.145 257.699 208.145 257.696 208.145ZM222.739 206.22C222.695 206.22 222.656 206.188 222.649 206.144L222.533 205.425C222.525 205.375 222.559 205.329 222.608 205.321C222.658 205.313 222.705 205.346 222.714 205.396L222.83 206.115C222.838 206.164 222.804 206.211 222.754 206.219C222.749 206.22 222.744 206.22 222.739 206.22ZM257.447 205.732C257.401 205.732 257.362 205.698 257.356 205.652C257.325 205.413 257.292 205.173 257.257 204.933C257.25 204.883 257.285 204.837 257.335 204.83C257.384 204.821 257.431 204.857 257.439 204.907C257.474 205.148 257.507 205.389 257.538 205.629C257.544 205.679 257.509 205.725 257.459 205.731C257.455 205.732 257.451 205.732 257.447 205.732ZM224.123 205.311C224.077 205.311 224.038 205.277 224.032 205.232C224.026 205.182 224.061 205.136 224.111 205.13L224.838 205.037C224.888 205.031 224.934 205.066 224.941 205.116C224.947 205.166 224.912 205.211 224.862 205.218L224.134 205.31C224.131 205.311 224.127 205.311 224.123 205.311ZM226.547 205.003C226.501 205.003 226.462 204.97 226.456 204.924C226.449 204.874 226.485 204.828 226.535 204.822L227.262 204.729C227.313 204.724 227.358 204.758 227.365 204.808C227.371 204.858 227.336 204.904 227.286 204.91L226.558 205.002C226.555 205.003 226.551 205.003 226.547 205.003ZM228.971 204.695C228.925 204.695 228.886 204.662 228.88 204.616C228.873 204.566 228.909 204.52 228.959 204.514L229.686 204.421C229.735 204.417 229.782 204.45 229.789 204.5C229.795 204.55 229.76 204.596 229.709 204.602L228.982 204.694C228.978 204.695 228.974 204.695 228.971 204.695ZM231.395 204.387C231.349 204.387 231.31 204.354 231.304 204.308C231.297 204.258 231.333 204.212 231.383 204.206L232.11 204.114C232.159 204.106 232.206 204.143 232.213 204.192C232.219 204.242 232.184 204.288 232.133 204.294L231.406 204.387C231.402 204.387 231.398 204.387 231.395 204.387ZM233.818 204.079C233.773 204.079 233.734 204.046 233.728 204C233.721 203.95 233.757 203.904 233.807 203.898L234.534 203.806C234.584 203.799 234.63 203.835 234.637 203.884C234.643 203.934 234.608 203.98 234.557 203.986L233.83 204.078C233.826 204.079 233.822 204.079 233.818 204.079ZM236.242 203.771C236.197 203.771 236.158 203.738 236.152 203.692C236.145 203.642 236.181 203.597 236.231 203.59L236.958 203.498C237.008 203.492 237.054 203.527 237.061 203.576C237.067 203.626 237.032 203.672 236.981 203.678L236.254 203.771C236.25 203.771 236.246 203.771 236.242 203.771ZM238.666 203.463C238.621 203.463 238.581 203.43 238.575 203.384C238.569 203.334 238.604 203.289 238.655 203.282L239.382 203.19C239.432 203.185 239.478 203.218 239.484 203.268C239.491 203.318 239.455 203.364 239.405 203.37L238.678 203.463C238.674 203.463 238.67 203.463 238.666 203.463ZM257.067 203.335C257.024 203.335 256.985 203.305 256.977 203.261C256.932 203.024 256.884 202.786 256.834 202.549C256.824 202.5 256.855 202.452 256.905 202.441C256.954 202.431 257.003 202.462 257.013 202.512C257.064 202.75 257.112 202.989 257.157 203.228C257.166 203.277 257.134 203.325 257.084 203.334C257.078 203.335 257.073 203.335 257.067 203.335ZM241.09 203.156C241.045 203.156 241.005 203.122 240.999 203.076C240.993 203.026 241.028 202.981 241.079 202.974L241.806 202.882C241.855 202.874 241.902 202.911 241.908 202.961C241.915 203.01 241.879 203.056 241.829 203.062L241.102 203.155C241.098 203.155 241.094 203.156 241.09 203.156ZM243.514 202.848C243.468 202.848 243.429 202.814 243.423 202.768C243.417 202.718 243.452 202.673 243.502 202.666L244.23 202.574C244.279 202.567 244.326 202.603 244.332 202.653C244.339 202.702 244.303 202.748 244.253 202.754L243.526 202.847C243.522 202.847 243.518 202.848 243.514 202.848ZM245.938 202.54C245.892 202.54 245.853 202.506 245.847 202.46C245.841 202.41 245.876 202.365 245.926 202.358L246.654 202.266C246.703 202.26 246.75 202.295 246.756 202.345C246.762 202.395 246.727 202.44 246.677 202.447L245.95 202.539C245.946 202.539 245.942 202.54 245.938 202.54ZM248.362 202.232C248.316 202.232 248.277 202.198 248.271 202.152C248.265 202.102 248.3 202.057 248.35 202.05L249.077 201.958C249.127 201.953 249.174 201.987 249.18 202.037C249.186 202.087 249.151 202.132 249.101 202.139L248.373 202.231C248.37 202.231 248.366 202.232 248.362 202.232ZM250.786 201.924C250.74 201.924 250.701 201.89 250.695 201.845C250.688 201.795 250.724 201.749 250.774 201.743L251.501 201.65C251.551 201.642 251.597 201.679 251.604 201.729C251.61 201.779 251.575 201.824 251.524 201.831L250.797 201.923C250.793 201.924 250.79 201.924 250.786 201.924ZM253.21 201.616C253.164 201.616 253.125 201.582 253.119 201.536C253.112 201.487 253.148 201.441 253.198 201.435L253.925 201.342C253.974 201.335 254.021 201.371 254.028 201.421C254.034 201.471 253.999 201.516 253.948 201.523L253.221 201.615C253.217 201.616 253.213 201.616 253.21 201.616ZM255.633 201.308C255.588 201.308 255.549 201.274 255.543 201.229C255.536 201.179 255.572 201.133 255.622 201.127L256.349 201.034C256.398 201.028 256.445 201.063 256.452 201.113C256.458 201.163 256.422 201.208 256.372 201.215L255.645 201.307C255.641 201.308 255.637 201.308 255.633 201.308Z" fill="white"/>
<path d="M228.958 195.939L228.927 195.023C228.995 194.794 229.175 194.616 229.406 194.548C230.271 194.297 232.428 193.773 233.583 194.421L233.876 195.454L228.958 195.939Z" fill="url(#paint54_linear_45_1669)"/>
<path d="M231.603 194.717C231.406 194.792 231.202 194.818 230.992 194.794C230.738 194.765 230.535 194.568 230.503 194.317L230.137 191.481L231.591 191.296L231.957 194.13C231.989 194.383 231.843 194.626 231.603 194.717Z" fill="url(#paint55_linear_45_1669)"/>
<path d="M243.042 194.15L243.01 193.233C243.078 193.005 243.259 192.826 243.49 192.759C244.354 192.507 246.512 191.984 247.667 192.632L247.96 193.665L243.042 194.15Z" fill="url(#paint56_linear_45_1669)"/>
<path d="M245.687 192.928C245.49 193.003 245.286 193.029 245.076 193.005C244.821 192.976 244.619 192.779 244.587 192.528L244.182 189.393L245.636 189.208L246.04 192.341C246.073 192.593 245.927 192.837 245.687 192.928Z" fill="url(#paint57_linear_45_1669)"/>
<path d="M230.079 192.195L245.65 189.694C246.005 189.637 246.275 189.344 246.291 188.989C246.314 188.492 246.296 187.754 246.086 187.015C245.848 186.173 245.022 185.63 244.143 185.721C241.216 186.023 233.79 186.968 229.904 189.096C229.493 189.321 229.22 189.729 229.168 190.19C229.118 190.63 229.122 191.209 229.334 191.771C229.446 192.07 229.76 192.246 230.079 192.195Z" fill="url(#paint58_linear_45_1669)"/>
<path d="M229.696 191.597C229.584 191.597 229.484 191.521 229.458 191.409C229.452 191.383 229.313 190.776 229.398 190.164C229.467 189.663 229.803 189.225 230.273 189.02C231.12 188.652 232.746 188.003 234.119 187.789C234.253 187.771 234.377 187.859 234.398 187.992C234.419 188.124 234.328 188.248 234.195 188.269C232.876 188.474 231.295 189.106 230.469 189.464C230.153 189.602 229.928 189.895 229.882 190.23C229.809 190.752 229.933 191.294 229.934 191.299C229.964 191.43 229.882 191.56 229.751 191.59C229.732 191.594 229.714 191.597 229.696 191.597Z" fill="white"/>
<path d="M221.657 196.508C226.701 195.802 248.526 192.798 254.973 192.752C255.528 192.748 256.025 193.088 256.212 193.604C256.804 195.24 258.063 199.055 258.473 202.944C258.529 203.473 258.196 203.967 257.684 204.132L243.544 208.695L238.397 209.349L222.564 208.263C222.005 208.225 221.545 207.819 221.447 207.274C221.095 205.337 220.348 200.78 220.5 197.767C220.532 197.127 221.015 196.598 221.657 196.508Z" fill="url(#paint59_linear_45_1669)"/>
<path d="M238.36 208.185C238.357 208.185 238.355 208.184 238.353 208.184L237.622 208.134C237.571 208.131 237.533 208.087 237.537 208.037C237.54 207.987 237.584 207.951 237.634 207.953L238.366 208.003C238.416 208.006 238.454 208.05 238.451 208.1C238.447 208.148 238.407 208.185 238.36 208.185ZM239.559 208.032C239.514 208.032 239.474 207.999 239.468 207.953C239.462 207.903 239.497 207.857 239.548 207.851L240.275 207.759C240.324 207.753 240.371 207.788 240.377 207.837C240.384 207.887 240.348 207.933 240.298 207.939L239.571 208.031C239.567 208.032 239.563 208.032 239.559 208.032ZM235.922 208.017C235.919 208.017 235.917 208.017 235.915 208.017L235.184 207.967C235.133 207.964 235.095 207.92 235.099 207.87C235.102 207.82 235.151 207.788 235.196 207.786L235.928 207.836C235.978 207.839 236.016 207.883 236.013 207.933C236.01 207.981 235.969 208.017 235.922 208.017ZM233.484 207.85C233.482 207.85 233.48 207.85 233.477 207.85L232.746 207.8C232.696 207.796 232.657 207.753 232.661 207.703C232.664 207.653 232.709 207.619 232.759 207.618L233.49 207.669C233.54 207.672 233.579 207.716 233.575 207.766C233.572 207.814 233.531 207.85 233.484 207.85ZM241.983 207.724C241.938 207.724 241.898 207.691 241.892 207.645C241.886 207.595 241.921 207.549 241.972 207.543L242.699 207.451C242.748 207.446 242.795 207.48 242.801 207.529C242.808 207.579 242.772 207.625 242.722 207.631L241.995 207.723C241.991 207.724 241.987 207.724 241.983 207.724ZM231.046 207.683C231.044 207.683 231.042 207.683 231.039 207.683L230.308 207.633C230.258 207.629 230.219 207.586 230.223 207.536C230.227 207.486 230.27 207.45 230.321 207.451L231.052 207.502C231.103 207.505 231.141 207.548 231.137 207.599C231.134 207.647 231.094 207.683 231.046 207.683ZM228.608 207.516C228.606 207.516 228.604 207.516 228.602 207.516L227.87 207.466C227.82 207.462 227.782 207.419 227.785 207.369C227.789 207.318 227.837 207.287 227.883 207.284L228.614 207.334C228.665 207.338 228.703 207.381 228.699 207.431C228.696 207.479 228.656 207.516 228.608 207.516ZM226.17 207.349C226.168 207.349 226.166 207.349 226.164 207.349L225.432 207.299C225.382 207.295 225.344 207.252 225.347 207.201C225.351 207.151 225.398 207.118 225.445 207.117L226.177 207.167C226.227 207.171 226.265 207.214 226.262 207.264C226.258 207.312 226.218 207.349 226.17 207.349ZM244.36 207.208C244.321 207.208 244.286 207.184 244.273 207.146C244.257 207.098 244.284 207.046 244.332 207.031L245.029 206.806C245.077 206.791 245.129 206.817 245.144 206.864C245.16 206.912 245.134 206.964 245.085 206.979L244.388 207.204C244.379 207.207 244.369 207.208 244.36 207.208ZM223.732 207.182C223.73 207.182 223.728 207.182 223.726 207.182L222.995 207.131C222.944 207.128 222.906 207.084 222.909 207.034C222.913 206.984 222.956 206.949 223.007 206.95L223.738 207C223.789 207.004 223.827 207.047 223.824 207.097C223.82 207.145 223.78 207.182 223.732 207.182ZM246.684 206.459C246.645 206.459 246.609 206.434 246.597 206.396C246.581 206.348 246.608 206.297 246.656 206.281L247.353 206.056C247.401 206.04 247.453 206.067 247.468 206.114C247.484 206.162 247.458 206.214 247.409 206.229L246.712 206.454C246.703 206.457 246.693 206.459 246.684 206.459ZM222.445 205.75C222.401 205.75 222.362 205.718 222.355 205.674C222.318 205.445 222.279 205.204 222.241 204.953C222.233 204.904 222.268 204.857 222.318 204.85C222.367 204.842 222.414 204.876 222.422 204.926C222.46 205.177 222.499 205.417 222.536 205.645C222.544 205.694 222.51 205.741 222.46 205.749C222.455 205.75 222.45 205.75 222.445 205.75ZM249.008 205.709C248.969 205.709 248.933 205.684 248.921 205.646C248.905 205.598 248.931 205.547 248.98 205.531L249.677 205.306C249.725 205.291 249.777 205.317 249.792 205.365C249.808 205.412 249.782 205.464 249.734 205.479L249.036 205.704C249.027 205.707 249.017 205.709 249.008 205.709ZM251.332 204.959C251.293 204.959 251.257 204.934 251.245 204.896C251.229 204.848 251.255 204.797 251.303 204.782L252.001 204.557C252.049 204.541 252.1 204.567 252.116 204.615C252.132 204.663 252.106 204.714 252.057 204.729L251.36 204.954C251.351 204.957 251.341 204.959 251.332 204.959ZM253.656 204.209C253.617 204.209 253.581 204.185 253.569 204.146C253.553 204.098 253.579 204.047 253.628 204.032L254.325 203.807C254.374 203.791 254.425 203.817 254.44 203.865C254.456 203.913 254.43 203.964 254.381 203.979L253.684 204.204C253.675 204.208 253.665 204.209 253.656 204.209ZM255.98 203.459C255.941 203.459 255.905 203.435 255.893 203.396C255.877 203.349 255.903 203.297 255.952 203.282L256.649 203.057C256.697 203.041 256.748 203.067 256.764 203.115C256.78 203.163 256.754 203.214 256.706 203.23L256.008 203.455C255.999 203.458 255.989 203.459 255.98 203.459ZM222.094 203.348C222.048 203.348 222.009 203.314 222.003 203.268C221.972 203.03 221.942 202.788 221.914 202.545C221.908 202.495 221.944 202.45 221.994 202.444C222.044 202.437 222.09 202.474 222.096 202.523C222.124 202.766 222.154 203.008 222.185 203.245C222.191 203.295 222.155 203.341 222.105 203.347C222.101 203.348 222.097 203.348 222.094 203.348ZM257.061 201.93C257.016 201.93 256.977 201.897 256.97 201.852C256.934 201.612 256.895 201.372 256.854 201.135C256.845 201.086 256.878 201.039 256.928 201.03C256.977 201.023 257.026 201.055 257.034 201.104C257.076 201.343 257.115 201.583 257.152 201.825C257.159 201.875 257.125 201.921 257.075 201.929C257.07 201.929 257.066 201.93 257.061 201.93ZM221.837 200.933C221.79 200.933 221.75 200.897 221.746 200.85C221.726 200.605 221.709 200.362 221.695 200.122C221.692 200.071 221.73 200.028 221.781 200.025C221.832 200.015 221.875 200.06 221.878 200.111C221.892 200.35 221.909 200.592 221.928 200.835C221.933 200.885 221.895 200.929 221.844 200.933C221.842 200.933 221.84 200.933 221.837 200.933ZM256.611 199.545C256.569 199.545 256.531 199.516 256.522 199.474C256.468 199.234 256.413 198.998 256.357 198.766C256.345 198.717 256.375 198.668 256.424 198.656C256.474 198.644 256.523 198.674 256.535 198.724C256.591 198.957 256.647 199.194 256.7 199.434C256.711 199.483 256.68 199.532 256.631 199.543C256.624 199.544 256.618 199.545 256.611 199.545ZM221.739 198.509C221.739 198.509 221.738 198.509 221.738 198.509C221.687 198.508 221.647 198.467 221.647 198.417C221.65 198.213 221.656 198.016 221.665 197.825C221.669 197.738 221.733 197.668 221.819 197.655L221.849 197.743L221.862 197.833C221.839 198.023 221.833 198.218 221.831 198.419C221.83 198.469 221.789 198.509 221.739 198.509ZM223.544 197.598C223.499 197.598 223.46 197.565 223.453 197.52C223.446 197.47 223.481 197.424 223.531 197.417L224.258 197.318C224.307 197.309 224.354 197.345 224.361 197.395C224.368 197.445 224.333 197.491 224.283 197.498L223.557 197.597C223.552 197.598 223.548 197.598 223.544 197.598ZM225.966 197.267C225.921 197.267 225.881 197.234 225.875 197.189C225.868 197.139 225.903 197.093 225.953 197.086L226.68 196.988C226.729 196.982 226.776 197.016 226.783 197.066C226.79 197.116 226.755 197.161 226.705 197.168L225.978 197.266C225.974 197.267 225.97 197.267 225.966 197.267ZM256.013 197.193C255.973 197.193 255.936 197.166 255.925 197.126C255.857 196.885 255.788 196.652 255.721 196.428C255.707 196.38 255.735 196.329 255.783 196.315C255.832 196.301 255.882 196.328 255.897 196.376C255.964 196.601 256.033 196.835 256.101 197.077C256.115 197.125 256.087 197.175 256.038 197.189C256.03 197.192 256.021 197.193 256.013 197.193ZM228.388 196.941C228.343 196.941 228.304 196.908 228.297 196.863C228.291 196.813 228.326 196.767 228.376 196.76L229.103 196.663C229.152 196.656 229.199 196.692 229.206 196.742C229.213 196.791 229.177 196.837 229.127 196.844L228.4 196.941C228.396 196.941 228.392 196.941 228.388 196.941ZM230.811 196.62C230.766 196.62 230.727 196.587 230.721 196.541C230.714 196.492 230.749 196.446 230.799 196.439L231.526 196.344C231.576 196.338 231.623 196.372 231.629 196.422C231.636 196.472 231.6 196.518 231.55 196.525L230.823 196.62C230.819 196.62 230.815 196.62 230.811 196.62ZM233.235 196.306C233.19 196.306 233.15 196.272 233.144 196.226C233.138 196.177 233.173 196.131 233.223 196.124L233.951 196.031C233.999 196.026 234.047 196.06 234.053 196.11C234.06 196.159 234.024 196.205 233.974 196.211L233.247 196.305C233.243 196.305 233.239 196.306 233.235 196.306ZM235.659 195.997C235.614 195.997 235.574 195.964 235.568 195.918C235.562 195.868 235.598 195.823 235.648 195.816L236.375 195.725C236.426 195.719 236.471 195.754 236.478 195.804C236.484 195.854 236.448 195.899 236.398 195.906L235.671 195.997C235.667 195.997 235.663 195.997 235.659 195.997ZM238.084 195.696C238.039 195.696 237.999 195.662 237.993 195.616C237.987 195.566 238.023 195.521 238.073 195.515L238.801 195.426C238.852 195.418 238.897 195.456 238.903 195.506C238.909 195.556 238.873 195.601 238.823 195.607L238.096 195.695C238.092 195.696 238.088 195.696 238.084 195.696ZM240.51 195.404C240.464 195.404 240.425 195.37 240.419 195.324C240.413 195.274 240.449 195.229 240.499 195.223L241.228 195.137C241.278 195.131 241.323 195.167 241.329 195.216C241.335 195.266 241.299 195.312 241.249 195.318L240.521 195.403C240.517 195.404 240.514 195.404 240.51 195.404ZM242.937 195.122C242.891 195.122 242.852 195.088 242.846 195.042C242.841 194.992 242.877 194.947 242.927 194.941L243.656 194.859C243.705 194.85 243.751 194.889 243.757 194.939C243.763 194.989 243.726 195.034 243.676 195.039L242.948 195.122C242.944 195.122 242.941 195.122 242.937 195.122ZM255.291 194.873C255.253 194.873 255.217 194.849 255.204 194.811C255.115 194.548 255.034 194.318 254.964 194.124C254.947 194.077 254.972 194.025 255.02 194.008C255.068 193.992 255.12 194.016 255.137 194.063C255.207 194.257 255.288 194.489 255.378 194.753C255.394 194.8 255.368 194.852 255.32 194.868C255.311 194.871 255.301 194.873 255.291 194.873ZM245.366 194.854C245.32 194.854 245.28 194.819 245.275 194.773C245.27 194.723 245.306 194.678 245.356 194.672L246.086 194.595C246.135 194.59 246.181 194.626 246.186 194.676C246.192 194.726 246.155 194.771 246.105 194.776L245.376 194.853C245.373 194.854 245.369 194.854 245.366 194.854ZM247.797 194.602C247.75 194.602 247.71 194.567 247.706 194.52C247.701 194.47 247.737 194.426 247.788 194.421C248.036 194.396 248.279 194.372 248.518 194.35C248.568 194.346 248.613 194.381 248.618 194.431C248.623 194.482 248.586 194.526 248.535 194.531C248.297 194.553 248.054 194.577 247.806 194.602C247.803 194.602 247.8 194.602 247.797 194.602ZM250.23 194.375C250.183 194.375 250.143 194.34 250.139 194.292C250.134 194.242 250.172 194.198 250.222 194.194C250.473 194.172 250.717 194.152 250.953 194.132C251.002 194.135 251.048 194.166 251.052 194.215C251.056 194.266 251.018 194.31 250.968 194.314C250.732 194.333 250.488 194.353 250.238 194.375C250.235 194.375 250.233 194.375 250.23 194.375ZM252.667 194.189C252.619 194.189 252.578 194.152 252.575 194.103C252.572 194.054 252.61 194.01 252.661 194.007C252.917 193.991 253.161 193.976 253.394 193.964C253.446 193.955 253.487 194 253.49 194.05C253.493 194.1 253.454 194.143 253.403 194.146C253.172 194.158 252.928 194.172 252.672 194.189C252.671 194.189 252.669 194.189 252.667 194.189Z" fill="white"/>
<path d="M243.336 210.902L238.826 211.475C238.235 211.55 237.681 211.177 237.536 210.606L236.46 206.364C236.289 205.688 236.753 205.016 237.452 204.927L242.87 204.239C243.555 204.152 244.168 204.664 244.194 205.346L244.363 209.703C244.386 210.305 243.94 210.825 243.336 210.902Z" fill="url(#paint60_linear_45_1669)"/>
<path d="M242.679 210.18L239.247 210.616C238.797 210.673 238.375 210.389 238.265 209.954L237.446 206.726C237.315 206.212 237.669 205.7 238.201 205.632L242.325 205.108C242.846 205.042 243.312 205.432 243.332 205.951L243.461 209.267C243.478 209.726 243.139 210.122 242.679 210.18Z" fill="url(#paint61_linear_45_1669)"/>
<path d="M239.997 175.85C241.061 180.214 241.089 184.482 240.927 186.036C240.866 186.622 240.392 187.08 239.8 187.121C239.127 187.168 238.212 187.229 237.394 187.276C236.495 187.327 235.497 186.763 234.83 186.292C234.49 186.051 234.049 186.426 234.239 186.796C234.567 187.432 235.136 187.934 235.701 188.36C236.041 188.616 237.171 189.072 237.092 189.577C237.067 189.736 236.971 189.875 236.867 189.999C236.239 190.747 235.289 191.146 234.351 191.432C234.234 191.468 234.11 191.506 234.027 191.596C234.003 192.198 235.868 192.867 236.35 193.025C237.071 193.263 237.836 193.364 238.593 193.284C240.47 193.088 242.203 191.802 243.214 190.252C245.916 186.107 247.313 181.101 247.823 177.273C245.31 174.779 241.515 175.411 239.997 175.85Z" fill="url(#paint62_linear_45_1669)"/>
<path d="M247.823 177.668C249.828 162.634 238.158 151.075 238.158 151.075L231.215 159.11C236.486 165.633 238.992 171.611 240.136 176.305C241.654 175.866 245.309 175.173 247.823 177.668Z" fill="url(#paint63_linear_45_1669)"/>
<path d="M239.971 176.232C239.777 176.232 239.601 176.101 239.553 175.905C238.142 170.118 235.168 164.389 230.714 158.877C230.566 158.694 230.595 158.425 230.78 158.277C230.965 158.13 231.236 158.159 231.385 158.343C235.919 163.953 238.948 169.795 240.389 175.704C240.445 175.934 240.303 176.164 240.072 176.22C240.038 176.228 240.004 176.232 239.971 176.232Z" fill="url(#paint64_linear_45_1669)"/>
<path d="M145.936 265.353C145.938 265.279 145.933 265.205 145.914 265.13C144.797 260.735 139.255 257.998 139.255 257.998L137.058 258.169C135.796 262.042 135.958 264.418 136.161 265.476C136.166 265.506 136.175 265.534 136.183 265.563C137.995 265.724 141.724 265.829 145.936 265.353Z" fill="url(#paint65_linear_45_1669)"/>
<path d="M136.184 265.563C136.282 265.916 136.544 266.192 136.881 266.262C139.458 266.8 143.554 266.367 145.274 266.144C145.653 266.094 145.93 265.746 145.937 265.353C141.724 265.829 137.995 265.724 136.184 265.563Z" fill="url(#paint66_linear_45_1669)"/>
<path d="M136.175 254.921L137.106 259.367C137.174 259.692 137.426 259.936 137.731 259.965C138.105 260 138.637 260.02 139.172 259.942C139.652 259.872 139.986 259.388 139.901 258.868L139.255 254.921H136.175Z" fill="url(#paint67_linear_45_1669)"/>
<path d="M155.448 265.507C153.023 265.439 151.768 265.156 151.12 264.893C151.118 265.132 151.12 265.376 151.127 265.628C151.136 265.898 151.337 266.113 151.584 266.112L164.902 266.026C165.327 266.023 165.576 265.534 165.392 265.147C163.645 265.29 159.198 265.611 155.448 265.507Z" fill="url(#paint68_linear_45_1669)"/>
<path d="M165.391 265.147C165.375 265.113 165.361 265.079 165.338 265.047C164.162 263.416 161.167 260.167 155.247 258.758L152.408 258.669C152.408 258.669 151.143 260.851 151.119 264.892C151.768 265.156 153.023 265.439 155.448 265.507C159.198 265.611 163.645 265.29 165.391 265.147Z" fill="url(#paint69_linear_45_1669)"/>
<path d="M151.755 254.528C151.799 254.736 152.39 257.899 152.619 259.125C152.673 259.417 152.902 259.63 153.174 259.646C153.66 259.673 154.445 259.676 155.119 259.494C155.483 259.396 155.727 259.028 155.701 258.619L155.384 253.616L151.755 254.528Z" fill="url(#paint70_linear_45_1669)"/>
<path d="M149.603 196.125C149.603 196.125 153.509 222.772 156.328 254.482C156.381 255.073 155.907 255.587 155.322 255.709C154.461 255.889 153.195 256.103 152.147 256.074C151.588 256.058 151.12 255.646 151.026 255.099C150.066 249.508 143.213 219.501 141.414 212.897C141.414 212.897 139.348 240.95 140.009 255.504C140.025 255.866 139.758 256.18 139.396 256.221C138.846 256.284 137.966 256.332 136.847 256.214C136.422 256.169 136.079 255.85 136.018 255.43C135.334 250.699 131.397 222.533 131.565 202.244C131.574 201.099 132.917 191.699 132.917 191.699L149.603 196.125Z" fill="url(#paint71_linear_45_1669)"/>
<path d="M132.33 197.66C131.928 197.519 131.648 197.157 131.605 196.736C131.085 191.733 128.57 160.711 144.449 147.95C144.449 147.95 145.359 145.585 152.844 151.399C160.329 157.213 156.322 163.307 154.53 171.713C152.362 181.884 148.557 190.198 150.24 196.458C150.356 196.89 150.128 197.343 149.705 197.498C143.891 199.625 138.099 199.696 132.33 197.66Z" fill="url(#paint72_linear_45_1669)"/>
<path d="M150.643 138.656C150.638 139.097 144.297 148.038 144.297 148.038C144.297 148.038 145.435 150.263 150.869 152.07L155.559 142.497L150.643 138.656Z" fill="url(#paint73_linear_45_1669)"/>
<path d="M155.635 133.532C155.635 133.532 157.891 138.677 158.042 141.378C158.194 144.078 158.78 145.831 155.635 146.374C152.489 146.918 149.84 145.363 148.404 142.673C148.404 142.673 146.155 138.528 146.66 136.83C147.164 135.133 155.635 133.532 155.635 133.532Z" fill="url(#paint74_linear_45_1669)"/>
<path d="M149.479 140.739L149.658 140.66C149.886 140.561 149.984 140.291 149.869 140.072C149.426 139.221 148.561 137.271 149.678 136.817C151.118 136.23 156.82 135.076 158.05 133.067C159.232 131.137 158.185 128.645 156.61 127.936C156.505 127.889 156.381 127.927 156.327 128.028L156.195 128.275C156.105 128.443 155.854 128.418 155.801 128.234C155.75 128.058 155.514 128.024 155.416 128.18C155.038 128.781 154.017 129.755 151.287 130.255C147.407 130.966 144.841 132.525 144.777 135.187C144.773 135.356 144.592 135.45 144.447 135.362C144.16 135.189 143.702 135.107 143.089 135.619C142.023 136.508 142.459 138.816 144.795 140.714C144.906 140.804 144.905 140.976 144.785 141.054C144.362 141.327 143.73 141.979 145.366 142.847C147.058 143.745 148.322 143.671 148.808 143.591C148.929 143.571 149.007 143.455 148.981 143.336L148.462 140.997C148.432 140.864 148.534 140.739 148.67 140.739H149.479V140.739Z" fill="url(#paint75_linear_45_1669)"/>
<path d="M149.577 141.232C149.577 141.232 148.716 137.946 147.232 138.867C145.748 139.789 148.002 142.55 149.196 142.673L149.577 141.232Z" fill="url(#paint76_linear_45_1669)"/>
<path d="M155.252 154.097L155.69 165.753C156.931 166.177 158.113 166.507 159.239 166.753C159.943 164.503 161.494 161.741 162.763 159.687C158.099 158.05 155.252 154.097 155.252 154.097Z" fill="url(#paint77_linear_45_1669)"/>
<path d="M178.541 153.899C172.142 160.757 166.963 161.161 162.763 159.687C161.493 161.741 159.943 164.503 159.239 166.754C176.326 170.493 180.35 154.899 180.35 154.899L178.541 153.899Z" fill="url(#paint78_linear_45_1669)"/>
<path d="M179.838 153.17C179.838 153.17 180.575 152.385 181.94 152.632C183.304 152.879 184.518 153.349 185.368 152.632C186.218 151.914 186.517 152.877 186.517 152.877L183.972 154.798L179.838 153.17Z" fill="url(#paint79_linear_45_1669)"/>
<path d="M178.316 154.514C178.316 154.514 178.821 152.417 180.343 152.705C181.865 152.992 185.32 154.857 186.211 154.514C187.101 154.17 188.24 153.348 188.824 153.638L187.795 154.908C187.795 154.908 190.44 153.393 190.896 154.324L186.494 156.783C186.494 156.783 180.054 156.143 178.316 154.514Z" fill="url(#paint80_linear_45_1669)"/>
<path d="M148.149 169.352C148.149 169.352 160.179 179.354 173.169 174.99C173.975 174.719 174.856 174.778 175.608 175.172L179.342 177.13C180.91 177.952 182.851 177.413 183.76 175.902C184.279 175.041 184.722 174.057 184.81 173.114L177.503 170.177L178.041 169.287C178.041 169.287 174.474 168.987 173.54 171.526C173.54 171.526 166.744 174.332 155.284 161.818C155.284 161.818 150.083 166.208 148.149 169.352Z" fill="url(#paint81_linear_45_1669)"/>
<path d="M147.502 169.249C147.462 169.249 147.422 169.237 147.387 169.214C142.321 165.816 139.939 160.332 139.915 160.277C139.871 160.173 139.92 160.053 140.024 160.009C140.129 159.965 140.25 160.013 140.294 160.118C140.317 160.171 142.656 165.547 147.617 168.875C147.711 168.938 147.736 169.065 147.672 169.159C147.633 169.217 147.568 169.249 147.502 169.249Z" fill="url(#paint82_linear_45_1669)"/>
<path d="M155.046 161.648C154.979 161.648 154.912 161.615 154.873 161.554C154.858 161.531 153.31 159.139 150.363 153.9C149.456 152.289 148.265 151.269 146.822 150.868C144.433 150.205 142.13 151.477 142.108 151.49C142.008 151.544 141.883 151.511 141.827 151.413C141.771 151.315 141.805 151.19 141.904 151.134C142.003 151.078 144.372 149.763 146.93 150.473C148.484 150.904 149.76 151.99 150.722 153.7C153.662 158.927 155.204 161.309 155.219 161.333C155.281 161.428 155.253 161.554 155.157 161.615C155.123 161.638 155.084 161.648 155.046 161.648Z" fill="url(#paint83_linear_45_1669)"/>
<defs>
<filter id="filter0_f_45_1669" x="2.28882e-05" y="-7.62939e-06" width="317.041" height="332.041" filterUnits="userSpaceOnUse" color-interpolation-filters="sRGB">
<feFlood flood-opacity="0" result="BackgroundImageFix"/>
<feBlend mode="normal" in="SourceGraphic" in2="BackgroundImageFix" result="shape"/>
<feGaussianBlur stdDeviation="36.7602" result="effect1_foregroundBlur_45_1669"/>
</filter>
<linearGradient id="paint0_linear_45_1669" x1="279.393" y1="292.468" x2="120.195" y2="119.38" gradientUnits="userSpaceOnUse">
<stop stop-color="#B37CFF"/>
<stop offset="1" stop-color="#F895E7"/>
</linearGradient>
<linearGradient id="paint1_linear_45_1669" x1="68.5023" y1="154.03" x2="130.966" y2="7.48224" gradientUnits="userSpaceOnUse">
<stop stop-color="#A737D5"/>
<stop offset="1" stop-color="#EF497A"/>
</linearGradient>
<linearGradient id="paint2_linear_45_1669" x1="121.279" y1="199.652" x2="76.2475" y2="61.9805" gradientUnits="userSpaceOnUse">
<stop stop-color="#CE1567"/>
<stop offset="1" stop-color="#7A1DBC"/>
</linearGradient>
<linearGradient id="paint3_linear_45_1669" x1="222.89" y1="-176.103" x2="162.899" y2="240.545" gradientUnits="userSpaceOnUse">
<stop stop-color="#53D8FF"/>
<stop offset="0.2057" stop-color="#4DB9FD"/>
<stop offset="1" stop-color="#3840F7"/>
</linearGradient>
<linearGradient id="paint4_linear_45_1669" x1="164.931" y1="120.467" x2="205.47" y2="-19.0094" gradientUnits="userSpaceOnUse">
<stop stop-color="#53D8FF"/>
<stop offset="0.2057" stop-color="#4DB9FD"/>
<stop offset="1" stop-color="#3840F7"/>
</linearGradient>
<linearGradient id="paint5_linear_45_1669" x1="147.404" y1="105.891" x2="228.622" y2="-15.4282" gradientUnits="userSpaceOnUse">
<stop stop-color="#2B3582"/>
<stop offset="1" stop-color="#150E42"/>
</linearGradient>
<linearGradient id="paint6_linear_45_1669" x1="172.657" y1="122.796" x2="253.875" y2="1.47719" gradientUnits="userSpaceOnUse">
<stop stop-color="#2B3582"/>
<stop offset="1" stop-color="#150E42"/>
</linearGradient>
<linearGradient id="paint7_linear_45_1669" x1="196.939" y1="139.051" x2="278.156" y2="17.7325" gradientUnits="userSpaceOnUse">
<stop stop-color="#2B3582"/>
<stop offset="1" stop-color="#150E42"/>
</linearGradient>
<linearGradient id="paint8_linear_45_1669" x1="214.882" y1="167.421" x2="256.471" y2="102.787" gradientUnits="userSpaceOnUse">
<stop stop-color="#2B3582"/>
<stop offset="1" stop-color="#150E42"/>
</linearGradient>
<linearGradient id="paint9_linear_45_1669" x1="160.067" y1="114.368" x2="241.285" y2="-6.95092" gradientUnits="userSpaceOnUse">
<stop stop-color="#2B3582"/>
<stop offset="1" stop-color="#150E42"/>
</linearGradient>
<linearGradient id="paint10_linear_45_1669" x1="185.32" y1="131.273" x2="266.537" y2="9.95443" gradientUnits="userSpaceOnUse">
<stop stop-color="#2B3582"/>
<stop offset="1" stop-color="#150E42"/>
</linearGradient>
<linearGradient id="paint11_linear_45_1669" x1="209.602" y1="147.529" x2="290.819" y2="26.2098" gradientUnits="userSpaceOnUse">
<stop stop-color="#2B3582"/>
<stop offset="1" stop-color="#150E42"/>
</linearGradient>
<linearGradient id="paint12_linear_45_1669" x1="234.854" y1="164.434" x2="316.071" y2="43.1151" gradientUnits="userSpaceOnUse">
<stop stop-color="#2B3582"/>
<stop offset="1" stop-color="#150E42"/>
</linearGradient>
<linearGradient id="paint13_linear_45_1669" x1="171.282" y1="121.876" x2="252.499" y2="0.556781" gradientUnits="userSpaceOnUse">
<stop stop-color="#2B3582"/>
<stop offset="1" stop-color="#150E42"/>
</linearGradient>
<linearGradient id="paint14_linear_45_1669" x1="196.535" y1="138.781" x2="277.752" y2="17.4621" gradientUnits="userSpaceOnUse">
<stop stop-color="#2B3582"/>
<stop offset="1" stop-color="#150E42"/>
</linearGradient>
<linearGradient id="paint15_linear_45_1669" x1="220.816" y1="155.036" x2="302.033" y2="33.7175" gradientUnits="userSpaceOnUse">
<stop stop-color="#2B3582"/>
<stop offset="1" stop-color="#150E42"/>
</linearGradient>
<linearGradient id="paint16_linear_45_1669" x1="183.593" y1="130.117" x2="264.81" y2="8.79842" gradientUnits="userSpaceOnUse">
<stop stop-color="#2B3582"/>
<stop offset="1" stop-color="#150E42"/>
</linearGradient>
<linearGradient id="paint17_linear_45_1669" x1="208.846" y1="147.023" x2="290.063" y2="25.7039" gradientUnits="userSpaceOnUse">
<stop stop-color="#2B3582"/>
<stop offset="1" stop-color="#150E42"/>
</linearGradient>
<linearGradient id="paint18_linear_45_1669" x1="233.127" y1="163.278" x2="314.344" y2="41.9592" gradientUnits="userSpaceOnUse">
<stop stop-color="#2B3582"/>
<stop offset="1" stop-color="#150E42"/>
</linearGradient>
<linearGradient id="paint19_linear_45_1669" x1="252.417" y1="176.191" x2="333.634" y2="54.8722" gradientUnits="userSpaceOnUse">
<stop stop-color="#2B3582"/>
<stop offset="1" stop-color="#150E42"/>
</linearGradient>
<linearGradient id="paint20_linear_45_1669" x1="88.91" y1="142.216" x2="98.9173" y2="220.302" gradientUnits="userSpaceOnUse">
<stop stop-color="#50E7B7"/>
<stop offset="0.9964" stop-color="#323992"/>
</linearGradient>
<linearGradient id="paint21_linear_45_1669" x1="97.5311" y1="186.006" x2="76.4366" y2="296.256" gradientUnits="userSpaceOnUse">
<stop stop-color="#50E7B7"/>
<stop offset="0.9964" stop-color="#323992"/>
</linearGradient>
<linearGradient id="paint22_linear_45_1669" x1="102.188" y1="189.515" x2="87.6079" y2="228.146" gradientUnits="userSpaceOnUse">
<stop stop-color="#50E7B7"/>
<stop offset="0.9964" stop-color="#323992"/>
</linearGradient>
<linearGradient id="paint23_linear_45_1669" x1="104.053" y1="186.377" x2="58.0045" y2="288.867" gradientUnits="userSpaceOnUse">
<stop stop-color="#50E7B7"/>
<stop offset="0.9964" stop-color="#323992"/>
</linearGradient>
<linearGradient id="paint24_linear_45_1669" x1="102.615" y1="199.813" x2="69.5194" y2="246.981" gradientUnits="userSpaceOnUse">
<stop stop-color="#50E7B7"/>
<stop offset="0.9964" stop-color="#323992"/>
</linearGradient>
<linearGradient id="paint25_linear_45_1669" x1="111.789" y1="188.778" x2="36.9076" y2="272.85" gradientUnits="userSpaceOnUse">
<stop stop-color="#50E7B7"/>
<stop offset="0.9964" stop-color="#323992"/>
</linearGradient>
<linearGradient id="paint26_linear_45_1669" x1="77.4894" y1="188.851" x2="92.1249" y2="170.957" gradientUnits="userSpaceOnUse">
<stop stop-color="#50E7B7"/>
<stop offset="0.9964" stop-color="#323992"/>
</linearGradient>
<linearGradient id="paint27_linear_45_1669" x1="119.501" y1="223.213" x2="134.136" y2="205.32" gradientUnits="userSpaceOnUse">
<stop stop-color="#50E7B7"/>
<stop offset="0.9964" stop-color="#323992"/>
</linearGradient>
<linearGradient id="paint28_linear_45_1669" x1="86.6811" y1="195.201" x2="52.1078" y2="251.048" gradientUnits="userSpaceOnUse">
<stop stop-color="#FDF53F"/>
<stop offset="1" stop-color="#D93C65"/>
</linearGradient>
<linearGradient id="paint29_linear_45_1669" x1="86.6811" y1="186.533" x2="52.1079" y2="242.38" gradientUnits="userSpaceOnUse">
<stop stop-color="#FDF53F"/>
<stop offset="1" stop-color="#D93C65"/>
</linearGradient>
<linearGradient id="paint30_linear_45_1669" x1="86.6811" y1="204.014" x2="52.1078" y2="259.861" gradientUnits="userSpaceOnUse">
<stop stop-color="#FDF53F"/>
<stop offset="1" stop-color="#D93C65"/>
</linearGradient>
<linearGradient id="paint31_linear_45_1669" x1="86.6811" y1="212.828" x2="52.1079" y2="268.674" gradientUnits="userSpaceOnUse">
<stop stop-color="#FDF53F"/>
<stop offset="1" stop-color="#D93C65"/>
</linearGradient>
<linearGradient id="paint32_linear_45_1669" x1="86.6812" y1="221.641" x2="52.1079" y2="277.488" gradientUnits="userSpaceOnUse">
<stop stop-color="#FDF53F"/>
<stop offset="1" stop-color="#D93C65"/>
</linearGradient>
<linearGradient id="paint33_linear_45_1669" x1="86.6812" y1="230.19" x2="52.1079" y2="286.036" gradientUnits="userSpaceOnUse">
<stop stop-color="#FDF53F"/>
<stop offset="1" stop-color="#D93C65"/>
</linearGradient>
<linearGradient id="paint34_linear_45_1669" x1="86.681" y1="238.738" x2="52.1077" y2="294.585" gradientUnits="userSpaceOnUse">
<stop stop-color="#FDF53F"/>
<stop offset="1" stop-color="#D93C65"/>
</linearGradient>
<linearGradient id="paint35_linear_45_1669" x1="136.551" y1="211.664" x2="101.978" y2="267.51" gradientUnits="userSpaceOnUse">
<stop stop-color="#FDF53F"/>
<stop offset="1" stop-color="#D93C65"/>
</linearGradient>
<linearGradient id="paint36_linear_45_1669" x1="136.551" y1="220.477" x2="101.977" y2="276.324" gradientUnits="userSpaceOnUse">
<stop stop-color="#FDF53F"/>
<stop offset="1" stop-color="#D93C65"/>
</linearGradient>
<linearGradient id="paint37_linear_45_1669" x1="136.551" y1="229.026" x2="101.978" y2="284.872" gradientUnits="userSpaceOnUse">
<stop stop-color="#FDF53F"/>
<stop offset="1" stop-color="#D93C65"/>
</linearGradient>
<linearGradient id="paint38_linear_45_1669" x1="136.551" y1="237.574" x2="101.978" y2="293.421" gradientUnits="userSpaceOnUse">
<stop stop-color="#FDF53F"/>
<stop offset="1" stop-color="#D93C65"/>
</linearGradient>
<linearGradient id="paint39_linear_45_1669" x1="175.99" y1="169.972" x2="197.09" y2="169.972" gradientUnits="userSpaceOnUse">
<stop stop-color="#F9B776"/>
<stop offset="1" stop-color="#F47960"/>
</linearGradient>
<linearGradient id="paint40_linear_45_1669" x1="198.682" y1="171.053" x2="244.082" y2="131.114" gradientUnits="userSpaceOnUse">
<stop stop-color="#FDF53F"/>
<stop offset="0.294" stop-color="#F2BF4A"/>
<stop offset="1" stop-color="#D93C65"/>
</linearGradient>
<linearGradient id="paint41_linear_45_1669" x1="211.27" y1="185.362" x2="256.67" y2="145.423" gradientUnits="userSpaceOnUse">
<stop stop-color="#FDF53F"/>
<stop offset="0.294" stop-color="#F2BF4A"/>
<stop offset="1" stop-color="#D93C65"/>
</linearGradient>
<linearGradient id="paint42_linear_45_1669" x1="223.2" y1="149.021" x2="219.861" y2="138.929" gradientUnits="userSpaceOnUse">
<stop stop-color="#F9B776"/>
<stop offset="1" stop-color="#F47960"/>
</linearGradient>
<linearGradient id="paint43_linear_45_1669" x1="215.297" y1="136.654" x2="227.43" y2="141.968" gradientUnits="userSpaceOnUse">
<stop stop-color="#F9B776"/>
<stop offset="1" stop-color="#F47960"/>
</linearGradient>
<linearGradient id="paint44_linear_45_1669" x1="224.091" y1="143.888" x2="214.211" y2="133.316" gradientUnits="userSpaceOnUse">
<stop stop-color="#2B3582"/>
<stop offset="1" stop-color="#150E42"/>
</linearGradient>
<linearGradient id="paint45_linear_45_1669" x1="214.539" y1="138.385" x2="226.672" y2="143.698" gradientUnits="userSpaceOnUse">
<stop stop-color="#F9B776"/>
<stop offset="1" stop-color="#F47960"/>
</linearGradient>
<linearGradient id="paint46_linear_45_1669" x1="238.391" y1="265.795" x2="223.277" y2="265.795" gradientUnits="userSpaceOnUse">
<stop stop-color="#53D8FF"/>
<stop offset="1" stop-color="#3840F7"/>
</linearGradient>
<linearGradient id="paint47_linear_45_1669" x1="231.179" y1="264.617" x2="236.435" y2="239.353" gradientUnits="userSpaceOnUse">
<stop stop-color="#2B3582"/>
<stop offset="1" stop-color="#150E42"/>
</linearGradient>
<linearGradient id="paint48_linear_45_1669" x1="236.995" y1="258.749" x2="232.738" y2="258.749" gradientUnits="userSpaceOnUse">
<stop stop-color="#F9B776"/>
<stop offset="1" stop-color="#F47960"/>
</linearGradient>
<linearGradient id="paint49_linear_45_1669" x1="268.52" y1="265.471" x2="262.729" y2="265.471" gradientUnits="userSpaceOnUse">
<stop stop-color="#53D8FF"/>
<stop offset="1" stop-color="#3840F7"/>
</linearGradient>
<linearGradient id="paint50_linear_45_1669" x1="262.149" y1="271.061" x2="267.405" y2="245.797" gradientUnits="userSpaceOnUse">
<stop stop-color="#2B3582"/>
<stop offset="1" stop-color="#150E42"/>
</linearGradient>
<linearGradient id="paint51_linear_45_1669" x1="264.06" y1="255.226" x2="258.972" y2="255.226" gradientUnits="userSpaceOnUse">
<stop stop-color="#F9B776"/>
<stop offset="1" stop-color="#F47960"/>
</linearGradient>
<linearGradient id="paint52_linear_45_1669" x1="227.857" y1="262.188" x2="257.904" y2="192.098" gradientUnits="userSpaceOnUse">
<stop stop-color="#2B3582"/>
<stop offset="1" stop-color="#150E42"/>
</linearGradient>
<linearGradient id="paint53_linear_45_1669" x1="237.865" y1="177.689" x2="242.072" y2="231.549" gradientUnits="userSpaceOnUse">
<stop stop-color="#CB236D"/>
<stop offset="1" stop-color="#4C246D"/>
</linearGradient>
<linearGradient id="paint54_linear_45_1669" x1="236.935" y1="186.274" x2="228.664" y2="199.835" gradientUnits="userSpaceOnUse">
<stop stop-color="#CB236D"/>
<stop offset="1" stop-color="#4C246D"/>
</linearGradient>
<linearGradient id="paint55_linear_45_1669" x1="239.986" y1="183.018" x2="232.576" y2="191.371" gradientUnits="userSpaceOnUse">
<stop stop-color="#CB236D"/>
<stop offset="1" stop-color="#4C246D"/>
</linearGradient>
<linearGradient id="paint56_linear_45_1669" x1="253.027" y1="181.08" x2="242.996" y2="197.743" gradientUnits="userSpaceOnUse">
<stop stop-color="#CB236D"/>
<stop offset="1" stop-color="#4C246D"/>
</linearGradient>
<linearGradient id="paint57_linear_45_1669" x1="257.837" y1="182.427" x2="246.684" y2="190.095" gradientUnits="userSpaceOnUse">
<stop stop-color="#CB236D"/>
<stop offset="1" stop-color="#4C246D"/>
</linearGradient>
<linearGradient id="paint58_linear_45_1669" x1="235.851" y1="180.971" x2="238.417" y2="192.831" gradientUnits="userSpaceOnUse">
<stop stop-color="#CB236D"/>
<stop offset="1" stop-color="#4C246D"/>
</linearGradient>
<linearGradient id="paint59_linear_45_1669" x1="240.231" y1="213.38" x2="237.075" y2="161.464" gradientUnits="userSpaceOnUse">
<stop stop-color="#CB236D"/>
<stop offset="1" stop-color="#4C246D"/>
</linearGradient>
<linearGradient id="paint60_linear_45_1669" x1="240.371" y1="195.189" x2="240.4" y2="211.405" gradientUnits="userSpaceOnUse">
<stop stop-color="#CB236D"/>
<stop offset="1" stop-color="#4C246D"/>
</linearGradient>
<linearGradient id="paint61_linear_45_1669" x1="239.985" y1="208.929" x2="246.662" y2="193.708" gradientUnits="userSpaceOnUse">
<stop stop-color="#CB236D"/>
<stop offset="1" stop-color="#4C246D"/>
</linearGradient>
<linearGradient id="paint62_linear_45_1669" x1="244.055" y1="178.289" x2="232.666" y2="200.352" gradientUnits="userSpaceOnUse">
<stop stop-color="#F9B776"/>
<stop offset="1" stop-color="#F47960"/>
</linearGradient>
<linearGradient id="paint63_linear_45_1669" x1="214.519" y1="189.056" x2="259.919" y2="149.117" gradientUnits="userSpaceOnUse">
<stop stop-color="#FDF53F"/>
<stop offset="0.294" stop-color="#F2BF4A"/>
<stop offset="1" stop-color="#D93C65"/>
</linearGradient>
<linearGradient id="paint64_linear_45_1669" x1="251.35" y1="124.082" x2="231.505" y2="178.906" gradientUnits="userSpaceOnUse">
<stop stop-color="#FDF53F"/>
<stop offset="0.294" stop-color="#F2BF4A"/>
<stop offset="1" stop-color="#D93C65"/>
</linearGradient>
<linearGradient id="paint65_linear_45_1669" x1="136.022" y1="261.848" x2="145.937" y2="261.848" gradientUnits="userSpaceOnUse">
<stop stop-color="#2B3582"/>
<stop offset="1" stop-color="#150E42"/>
</linearGradient>
<linearGradient id="paint66_linear_45_1669" x1="160.843" y1="250.237" x2="124.974" y2="278.607" gradientUnits="userSpaceOnUse">
<stop stop-color="#53D8FF"/>
<stop offset="1" stop-color="#3840F7"/>
</linearGradient>
<linearGradient id="paint67_linear_45_1669" x1="138.779" y1="250.643" x2="136.912" y2="267.054" gradientUnits="userSpaceOnUse">
<stop stop-color="#F9B776"/>
<stop offset="1" stop-color="#F47960"/>
</linearGradient>
<linearGradient id="paint68_linear_45_1669" x1="167.251" y1="258.326" x2="131.382" y2="286.696" gradientUnits="userSpaceOnUse">
<stop stop-color="#53D8FF"/>
<stop offset="1" stop-color="#3840F7"/>
</linearGradient>
<linearGradient id="paint69_linear_45_1669" x1="151.119" y1="262.098" x2="165.391" y2="262.098" gradientUnits="userSpaceOnUse">
<stop stop-color="#2B3582"/>
<stop offset="1" stop-color="#150E42"/>
</linearGradient>
<linearGradient id="paint70_linear_45_1669" x1="153.947" y1="252.376" x2="153.109" y2="268.87" gradientUnits="userSpaceOnUse">
<stop stop-color="#F9B776"/>
<stop offset="1" stop-color="#F47960"/>
</linearGradient>
<linearGradient id="paint71_linear_45_1669" x1="125.43" y1="286.936" x2="152.928" y2="194.303" gradientUnits="userSpaceOnUse">
<stop stop-color="#53D8FF"/>
<stop offset="1" stop-color="#3840F7"/>
</linearGradient>
<linearGradient id="paint72_linear_45_1669" x1="153.376" y1="160.002" x2="108.245" y2="240.44" gradientUnits="userSpaceOnUse">
<stop stop-color="#FDF53F"/>
<stop offset="0.294" stop-color="#F2BF4A"/>
<stop offset="1" stop-color="#D93C65"/>
</linearGradient>
<linearGradient id="paint73_linear_45_1669" x1="146.335" y1="155.008" x2="150.677" y2="143.063" gradientUnits="userSpaceOnUse">
<stop stop-color="#F9B776"/>
<stop offset="1" stop-color="#F47960"/>
</linearGradient>
<linearGradient id="paint74_linear_45_1669" x1="165.003" y1="139.048" x2="144.299" y2="141.101" gradientUnits="userSpaceOnUse">
<stop stop-color="#F9B776"/>
<stop offset="1" stop-color="#F47960"/>
</linearGradient>
<linearGradient id="paint75_linear_45_1669" x1="142.504" y1="125.512" x2="153.287" y2="138.234" gradientUnits="userSpaceOnUse">
<stop stop-color="#2B3582"/>
<stop offset="1" stop-color="#150E42"/>
</linearGradient>
<linearGradient id="paint76_linear_45_1669" x1="165.005" y1="139.071" x2="144.302" y2="141.124" gradientUnits="userSpaceOnUse">
<stop stop-color="#F9B776"/>
<stop offset="1" stop-color="#F47960"/>
</linearGradient>
<linearGradient id="paint77_linear_45_1669" x1="160.428" y1="157.202" x2="151.258" y2="166.627" gradientUnits="userSpaceOnUse">
<stop stop-color="#FDF53F"/>
<stop offset="1" stop-color="#D93C65"/>
</linearGradient>
<linearGradient id="paint78_linear_45_1669" x1="186.988" y1="152.92" x2="159.399" y2="166.744" gradientUnits="userSpaceOnUse">
<stop stop-color="#F9B776"/>
<stop offset="1" stop-color="#F47960"/>
</linearGradient>
<linearGradient id="paint79_linear_45_1669" x1="186.583" y1="149.493" x2="177.191" y2="159.374" gradientUnits="userSpaceOnUse">
<stop stop-color="#C4421B"/>
<stop offset="1" stop-color="#5C0E16"/>
</linearGradient>
<linearGradient id="paint80_linear_45_1669" x1="187.12" y1="152.758" x2="159.531" y2="166.582" gradientUnits="userSpaceOnUse">
<stop stop-color="#F9B776"/>
<stop offset="1" stop-color="#F47960"/>
</linearGradient>
<linearGradient id="paint81_linear_45_1669" x1="198.682" y1="175.942" x2="118.421" y2="161.322" gradientUnits="userSpaceOnUse">
<stop stop-color="#F9B776"/>
<stop offset="1" stop-color="#F47960"/>
</linearGradient>
<linearGradient id="paint82_linear_45_1669" x1="113.335" y1="136.112" x2="171.699" y2="191.847" gradientUnits="userSpaceOnUse">
<stop stop-color="#FDF53F"/>
<stop offset="0.294" stop-color="#F2BF4A"/>
<stop offset="1" stop-color="#D93C65"/>
</linearGradient>
<linearGradient id="paint83_linear_45_1669" x1="120.785" y1="128.309" x2="179.15" y2="184.045" gradientUnits="userSpaceOnUse">
<stop stop-color="#FDF53F"/>
<stop offset="0.294" stop-color="#F2BF4A"/>
<stop offset="0.8975" stop-color="#DD4F61"/>
<stop offset="1" stop-color="#D93C65"/>
</linearGradient>
</defs>
</svg>
