<svg width="26" height="26" viewBox="0 0 26 26" fill="none" xmlns="http://www.w3.org/2000/svg">
<path d="M23.5083 11.1582L13.7583 2.49155C13.325 2.16655 12.7833 2.16655 12.35 2.49155L2.6 11.1582C2.16666 11.5916 2.05833 12.2416 2.49166 12.6749C2.925 13.1082 3.575 13.2166 4.00833 12.7832L4.33333 12.3499V22.7499C4.33333 23.3999 4.76666 23.8332 5.41666 23.8332H20.5833C21.2333 23.8332 21.6667 23.3999 21.6667 22.7499V12.3499L21.9917 12.6749C22.425 13.1082 23.075 12.9999 23.5083 12.5666C23.9417 12.2416 23.9417 11.4832 23.5083 11.1582ZM13 11.9166C14.625 11.9166 15.925 13.2166 15.925 14.8416C15.925 16.4666 14.625 17.7666 13 17.7666C11.375 17.7666 10.075 16.4666 10.075 14.8416C10.075 13.2166 11.375 11.9166 13 11.9166ZM7.58333 21.6665C7.58333 21.5582 7.58333 21.5582 7.69167 21.4499C10.075 18.5249 14.4083 17.9832 17.3333 20.3666C17.7667 20.6915 18.0917 21.0166 18.4167 21.4499C18.4167 21.4499 18.4167 21.5582 18.525 21.6665H7.58333Z" fill="#00244B"/>
</svg>
