<svg width="80" height="80" viewBox="0 0 80 80" fill="none" xmlns="http://www.w3.org/2000/svg">
<rect width="80" height="80" rx="40" fill="#FFF4E5"/>
<rect x="10" y="10" width="60" height="60" rx="30" fill="#FACE8E"/>
<path d="M38.3333 44.9999H41.6666V48.3333H38.3333V44.9999ZM38.3333 31.6666H41.6666V41.6666H38.3333V31.6666ZM39.9833 23.3333C30.7833 23.3333 23.3333 30.7999 23.3333 39.9999C23.3333 49.1999 30.7833 56.6666 39.9833 56.6666C49.2 56.6666 56.6666 49.1999 56.6666 39.9999C56.6666 30.7999 49.2 23.3333 39.9833 23.3333ZM40 53.3333C32.6333 53.3333 26.6666 47.3666 26.6666 39.9999C26.6666 32.6333 32.6333 26.6666 40 26.6666C47.3666 26.6666 53.3333 32.6333 53.3333 39.9999C53.3333 47.3666 47.3666 53.3333 40 53.3333Z" fill="#FF9800"/>
</svg>
