<svg width="26" height="26" viewBox="0 0 26 26" fill="none" xmlns="http://www.w3.org/2000/svg">
<path d="M23.5083 11.1585L13.7583 2.4918C13.325 2.1668 12.7833 2.1668 12.35 2.4918L2.6 11.1585C2.16666 11.5918 2.05833 12.2418 2.49166 12.6751C2.925 13.1085 3.575 13.2168 4.00833 12.7835L4.33333 12.3501V22.7501C4.33333 23.4001 4.76666 23.8335 5.41666 23.8335H20.5833C21.2333 23.8335 21.6667 23.4001 21.6667 22.7501V12.3501L21.9917 12.6751C22.425 13.1085 23.075 13.0001 23.5083 12.5668C23.9417 12.2418 23.9417 11.4835 23.5083 11.1585ZM13 11.9168C14.625 11.9168 15.925 13.2168 15.925 14.8418C15.925 16.4668 14.625 17.7668 13 17.7668C11.375 17.7668 10.075 16.4668 10.075 14.8418C10.075 13.2168 11.375 11.9168 13 11.9168ZM7.58333 21.6668C7.58333 21.5585 7.58333 21.5585 7.69167 21.4501C10.075 18.5251 14.4083 17.9835 17.3333 20.3668C17.7667 20.6918 18.0917 21.0168 18.4167 21.4501C18.4167 21.4501 18.4167 21.5585 18.525 21.6668H7.58333Z" fill="white"/>
</svg>
