<svg width="26" height="24" viewBox="0 0 26 24" fill="none" xmlns="http://www.w3.org/2000/svg">
<path d="M18.1458 3.56V2C18.1458 1.59 17.7775 1.25 17.3333 1.25C16.8892 1.25 16.5208 1.59 16.5208 2V3.5H9.47917V2C9.47917 1.59 9.11083 1.25 8.66667 1.25C8.2225 1.25 7.85417 1.59 7.85417 2V3.56C4.92917 3.81 3.51 5.42 3.29333 7.81C3.27167 8.1 3.53167 8.34 3.835 8.34H22.165C22.4792 8.34 22.7392 8.09 22.7067 7.81C22.49 5.42 21.0708 3.81 18.1458 3.56Z" fill="white"/>
<path d="M21.6667 9.84009H4.33333C3.7375 9.84009 3.25 10.2901 3.25 10.8401V17.0001C3.25 20.0001 4.875 22.0001 8.66667 22.0001H17.3333C21.125 22.0001 22.75 20.0001 22.75 17.0001V10.8401C22.75 10.2901 22.2625 9.84009 21.6667 9.84009ZM9.9775 18.2101C9.92333 18.2501 9.86917 18.3001 9.815 18.3301C9.75 18.3701 9.685 18.4001 9.62 18.4201C9.555 18.4501 9.49 18.4701 9.425 18.4801C9.34917 18.4901 9.28417 18.5001 9.20833 18.5001C9.0675 18.5001 8.92667 18.4701 8.79667 18.4201C8.65583 18.3701 8.5475 18.3001 8.43917 18.2101C8.24417 18.0201 8.125 17.7601 8.125 17.5001C8.125 17.2401 8.24417 16.9801 8.43917 16.7901C8.5475 16.7001 8.65583 16.6301 8.79667 16.5801C8.99167 16.5001 9.20833 16.4801 9.425 16.5201C9.49 16.5301 9.555 16.5501 9.62 16.5801C9.685 16.6001 9.75 16.6301 9.815 16.6701C9.86917 16.7101 9.92333 16.7501 9.9775 16.7901C10.1725 16.9801 10.2917 17.2401 10.2917 17.5001C10.2917 17.7601 10.1725 18.0201 9.9775 18.2101ZM9.9775 14.7101C9.77167 14.8901 9.49 15.0001 9.20833 15.0001C8.92667 15.0001 8.645 14.8901 8.43917 14.7101C8.24417 14.5201 8.125 14.2601 8.125 14.0001C8.125 13.7401 8.24417 13.4801 8.43917 13.2901C8.7425 13.0101 9.21917 12.9201 9.62 13.0801C9.76083 13.1301 9.88 13.2001 9.9775 13.2901C10.1725 13.4801 10.2917 13.7401 10.2917 14.0001C10.2917 14.2601 10.1725 14.5201 9.9775 14.7101ZM13.7692 18.2101C13.5633 18.3901 13.2817 18.5001 13 18.5001C12.7183 18.5001 12.4367 18.3901 12.2308 18.2101C12.0358 18.0201 11.9167 17.7601 11.9167 17.5001C11.9167 17.2401 12.0358 16.9801 12.2308 16.7901C12.6317 16.4201 13.3683 16.4201 13.7692 16.7901C13.9642 16.9801 14.0833 17.2401 14.0833 17.5001C14.0833 17.7601 13.9642 18.0201 13.7692 18.2101ZM13.7692 14.7101C13.715 14.7501 13.6608 14.7901 13.6067 14.8301C13.5417 14.8701 13.4767 14.9001 13.4117 14.9201C13.3467 14.9501 13.2817 14.9701 13.2167 14.9801C13.1408 14.9901 13.0758 15.0001 13 15.0001C12.7183 15.0001 12.4367 14.8901 12.2308 14.7101C12.0358 14.5201 11.9167 14.2601 11.9167 14.0001C11.9167 13.7401 12.0358 13.4801 12.2308 13.2901C12.3283 13.2001 12.4475 13.1301 12.5883 13.0801C12.9892 12.9201 13.4658 13.0101 13.7692 13.2901C13.9642 13.4801 14.0833 13.7401 14.0833 14.0001C14.0833 14.2601 13.9642 14.5201 13.7692 14.7101ZM17.5608 18.2101C17.355 18.3901 17.0733 18.5001 16.7917 18.5001C16.51 18.5001 16.2283 18.3901 16.0225 18.2101C15.8275 18.0201 15.7083 17.7601 15.7083 17.5001C15.7083 17.2401 15.8275 16.9801 16.0225 16.7901C16.4233 16.4201 17.16 16.4201 17.5608 16.7901C17.7558 16.9801 17.875 17.2401 17.875 17.5001C17.875 17.7601 17.7558 18.0201 17.5608 18.2101ZM17.5608 14.7101C17.5067 14.7501 17.4525 14.7901 17.3983 14.8301C17.3333 14.8701 17.2683 14.9001 17.2033 14.9201C17.1383 14.9501 17.0733 14.9701 17.0083 14.9801C16.9325 14.9901 16.8567 15.0001 16.7917 15.0001C16.51 15.0001 16.2283 14.8901 16.0225 14.7101C15.8275 14.5201 15.7083 14.2601 15.7083 14.0001C15.7083 13.7401 15.8275 13.4801 16.0225 13.2901C16.1308 13.2001 16.2392 13.1301 16.38 13.0801C16.575 13.0001 16.7917 12.9801 17.0083 13.0201C17.0733 13.0301 17.1383 13.0501 17.2033 13.0801C17.2683 13.1001 17.3333 13.1301 17.3983 13.1701C17.4525 13.2101 17.5067 13.2501 17.5608 13.2901C17.7558 13.4801 17.875 13.7401 17.875 14.0001C17.875 14.2601 17.7558 14.5201 17.5608 14.7101Z" fill="white"/>
</svg>
