<svg width="14" height="14" viewBox="0 0 14 14" fill="none" xmlns="http://www.w3.org/2000/svg">
<path d="M9.33329 7.52508V9.97508C9.33329 12.0167 8.51663 12.8334 6.47496 12.8334H4.02496C1.98329 12.8334 1.16663 12.0167 1.16663 9.97508V7.52508C1.16663 5.48341 1.98329 4.66675 4.02496 4.66675H6.47496C8.51663 4.66675 9.33329 5.48341 9.33329 7.52508Z" stroke="#292D32" stroke-linecap="round" stroke-linejoin="round"/>
<path d="M12.8333 4.02508V6.47508C12.8333 8.51675 12.0166 9.33342 9.97496 9.33342H9.33329V7.52508C9.33329 5.48341 8.51663 4.66675 6.47496 4.66675H4.66663V4.02508C4.66663 1.98341 5.48329 1.16675 7.52496 1.16675H9.97496C12.0166 1.16675 12.8333 1.98341 12.8333 4.02508Z" stroke="#292D32" stroke-linecap="round" stroke-linejoin="round"/>
</svg>
