<svg width="80" height="80" viewBox="0 0 80 80" fill="none" xmlns="http://www.w3.org/2000/svg">
<rect width="80" height="80" rx="40" fill="#E6F7E6"/>
<rect x="10" y="10" width="60" height="60" rx="30" fill="#CCEECC"/>
<g clip-path="url(#clip0_195_1360)">
<path d="M48.8333 30.5002C48.1833 29.8502 47.1333 29.8502 46.4833 30.5002L37.0833 39.9001L39.4333 42.2502L48.8333 32.8335C49.4667 32.2001 49.4667 31.1335 48.8333 30.5002ZM55.9 30.4835L39.4333 46.9502L33.6333 41.1668C32.9833 40.5168 31.9333 40.5168 31.2833 41.1668C30.6333 41.8168 30.6333 42.8668 31.2833 43.5168L38.25 50.4835C38.9 51.1335 39.95 51.1335 40.6 50.4835L58.25 32.8502C58.9 32.2002 58.9 31.1502 58.25 30.5002H58.2333C57.6 29.8335 56.55 29.8335 55.9 30.4835ZM21.8667 43.5335L28.8333 50.5001C29.4833 51.1502 30.5333 51.1502 31.1833 50.5001L32.35 49.3335L24.2167 41.1668C23.5667 40.5168 22.5167 40.5168 21.8667 41.1668C21.2167 41.8168 21.2167 42.8835 21.8667 43.5335Z" fill="#16A34A"/>
</g>
<defs>
<clipPath id="clip0_195_1360">
<rect width="40" height="40" fill="white" transform="translate(20 20)"/>
</clipPath>
</defs>
</svg>
