<svg width="14" height="14" viewBox="0 0 14 14" fill="none" xmlns="http://www.w3.org/2000/svg">
<path d="M5.34337 6.34091C5.28503 6.33508 5.21503 6.33508 5.15087 6.34091C3.76253 6.29425 2.66003 5.15675 2.66003 3.75675C2.66003 2.32758 3.81503 1.16675 5.25003 1.16675C6.6792 1.16675 7.84003 2.32758 7.84003 3.75675C7.8342 5.15675 6.7317 6.29425 5.34337 6.34091Z" stroke="#292D32" stroke-linecap="round" stroke-linejoin="round"/>
<path d="M9.57254 2.33325C10.7042 2.33325 11.6142 3.24909 11.6142 4.37492C11.6142 5.47742 10.7392 6.37575 9.64837 6.41659C9.6017 6.41075 9.5492 6.41075 9.4967 6.41659" stroke="#292D32" stroke-linecap="round" stroke-linejoin="round"/>
<path d="M2.42667 8.49325C1.015 9.43825 1.015 10.9783 2.42667 11.9174C4.03084 12.9908 6.66167 12.9908 8.26584 11.9174C9.6775 10.9724 9.6775 9.43242 8.26584 8.49325C6.6675 7.42575 4.03667 7.42575 2.42667 8.49325Z" stroke="#292D32" stroke-linecap="round" stroke-linejoin="round"/>
<path d="M10.6984 11.6667C11.1184 11.5792 11.515 11.4101 11.8417 11.1592C12.7517 10.4767 12.7517 9.35091 11.8417 8.66841C11.5209 8.42341 11.13 8.26008 10.7159 8.16675" stroke="#292D32" stroke-linecap="round" stroke-linejoin="round"/>
</svg>
