<svg width="14" height="14" viewBox="0 0 14 14" fill="none" xmlns="http://www.w3.org/2000/svg">
<path d="M12.25 3.48844C10.3075 3.29594 8.35333 3.19678 6.405 3.19678C5.25 3.19678 4.095 3.25511 2.94 3.37178L1.75 3.48844" stroke="#FF383C" stroke-width="1.5" stroke-linecap="round" stroke-linejoin="round"/>
<path d="M4.95837 2.89925L5.08671 2.13508C5.18004 1.58091 5.25004 1.16675 6.23587 1.16675H7.76421C8.75004 1.16675 8.82587 1.60425 8.91337 2.14091L9.04171 2.89925" stroke="#FF383C" stroke-width="1.5" stroke-linecap="round" stroke-linejoin="round"/>
<path d="M10.9958 5.33179L10.6167 11.206C10.5525 12.1218 10.5 12.8335 8.87248 12.8335H5.12748C3.49998 12.8335 3.44748 12.1218 3.38332 11.206L3.00415 5.33179" stroke="#FF383C" stroke-width="1.5" stroke-linecap="round" stroke-linejoin="round"/>
<path d="M6.02588 9.625H7.96838" stroke="#FF383C" stroke-width="1.5" stroke-linecap="round" stroke-linejoin="round"/>
<path d="M5.54163 7.29175H8.45829" stroke="#FF383C" stroke-width="1.5" stroke-linecap="round" stroke-linejoin="round"/>
</svg>
